<svg xmlns="http://www.w3.org/2000/svg" width="867" height="607">
    <path
        d="M507 4v2l3 1v2h3v3h2c2 3 2 3 2 6h2l1 8h2v21h-2l-1 8h-2l-.688 2.625C514.76 61.618 512.857 63.842 510 67l2.5 1.875L515 71v2l1.938.813C519 75 519 75 520 78c1.664.674 3.33 1.34 5 2 2.313 2 2.313 2 4 4v2l4 1v2l2.25.75c2.98 1.355 4.65 2.76 6.75 5.25v2h3a262.496 262.496 0 0 1 4 5l3 1 1 4 3 1v2l1.813.25c2.798.96 3.491 2.39 5.187 4.75l3 1v2l3 1v2h3a262.496 262.496 0 0 1 4 5l3 1v2h2l2 5 1.697-.016c2.538-.02 5.077-.034 7.615-.047l2.67-.025 2.569-.01 2.364-.016C602 134 602 134 605 135v2h3v2l4 1v2l3 1v4l3 1 1 8h2v18h-2v3h8v-2l14-1v-2l16-1v-2h3c1.423 3.823 2.24 6.913 2 11h2l1 10h2c2.106 5.528 3.379 10.07 3 16l-2.152.402-2.785.536-2.778.527c-2.238.312-2.238.312-3.285 1.535-1.666.04-3.334.043-5 0v2l-12 1v2l-8 2 1 6h2c1.257 2.906 2 4.796 2 8h2l1 6h2l1 7h2c.84 1.768 1.672 3.54 2.5 5.313l1.406 2.988C652 254 652 254 652 257h2l.77 2.012c2.136 5.525 2.136 5.525 4.918 10.738 1.588 2.724 1.95 5.14 2.312 8.25h2l1 6h2l.813 2.063c.891 2.206 1.838 4.39 2.812 6.562C672 296 672 296 672 299h2l1 6h2l1 7 3 1c2.757 4.896 4.827 10.348 4 16l-2 3h-2v2h-3l-1 3h-2l-1 3h-3l-.75 1.75c-1.444 2.6-2.985 4.328-5.25 6.25h-3l-1 3-4-1v-3h-2c-3.017-3.2-4.499-5.615-5-10l-3-1v-2h-2l-1-5h-2c-1.29-1.68-1.29-1.68-2.625-3.875l-1.352-2.18C637 321 637 321 637 319l-3-1v-3h-2l-.313-1.938L631 311l-3-1-1-5h-2l-1-5-3-1v-2h-5v2l-10 1v2l-8 1v2h-3l.063 3.625c.006 3.555-.364 6.88-1.063 10.375h-2l-1 13h-2l-.148 2.816c-.386 6.379-.871 12.118-2.852 18.184-.37 2.328-.714 4.66-1 7h-2l-1 12h-65c-2.25-6.75-2.25-6.75-2-11h-2l-1-11h-2l-1-10h-2c-2.296-9.41-2.296-9.41-2-14h-2l-1-11h-2l-1-10h-2c-.338-1.582-.67-3.166-1-4.75l-.563-2.672C495 295 495 295 495 291h-2l-1-10h-2l-1-11h-2l-.332-1.871c-.988-5.28-2.26-10.263-4.082-15.317C482 251 482 251 482 249h-2c.14 2.146.287 4.292.438 6.438.08 1.194.162 2.39.246 3.62-.007 2.828-.007 2.828 1.316 3.942.526 4.065.76 8.163 1.063 12.25l.275 3.414c.593 7.793.771 15.522.662 23.336h2l1 22-8-1v-2l-2.25-.375c-2.564-.583-4.442-1.412-6.75-2.625l.016 1.655c.119 14.478-.263 28.886-1.016 43.345h-2v9h-53v-9h2l-.035-1.96c-.073-7.296.377-14.465 1.035-21.728.095-1.095.19-2.19.29-3.318.232-2.665.469-5.33.71-7.994h2l-.035-2.238c-.062-6.987.27-13.818 1.035-20.762h2v-10l-5-1-1 5-3 1-1 5h-2l-1 3h-2l-.25 2.125c-.93 3.565-2.517 5.965-4.75 8.875h-2l-1 5h-2l-.813 1.625L393 334h-2l-.313 2.313c-.734 2.871-1.359 3.917-3.687 5.687h-2l-1 5-3 1-1 5h-2v2h-5v-2l-2.773.035-3.602.027-3.586.036C360 353 360 353 358 352v3h2c2.286 8.429 2.286 8.429 2 13h2v4h-39l-1-8h-2l-.367-1.793c-1.018-4.923-1.018-4.923-2.695-9.644-1.485-4.058-1.622-8.276-1.938-12.563h-2l-1-8h-2l-1-9h-2l-1-10h-2c-2.286-8.429-2.286-8.429-2-13h-2l-1-9h-2l-2-8-25 1-1 11h-2l-1 13h-2l-1 13h-2l-.113 1.95c-.552 7.578-2.065 14.686-3.887 22.05-.546 2.311-1.088 4.624-1.625 6.938l-.727 3.09c-.65 2.979-1.172 5.96-1.648 8.972h-2l.063 3.438C253 371 253 371 252 372c-2.666.089-5.306.115-7.973.098l-2.417-.005c-2.557-.005-5.115-.018-7.673-.03-1.73-.006-3.46-.01-5.189-.014-4.25-.011-8.499-.028-12.748-.049-.05-4.899-.018-8.902 1.438-13.625 1.115-3.785 2.032-7.455 2.562-11.375h2l1-11h2l1-12h2l.113-2.09c.396-5.65 1.227-10.518 3.188-15.828 1.01-3.01 1.364-5.932 1.699-9.082h2l1-8h-13v2h-7c-.318-5.73.427-10.165 2.246-15.605.77-2.448 1.292-4.872 1.754-7.395h2l1-9h2l1-10h2c.09-1.013.09-1.013.184-2.047l.254-2.703c.08-.882.162-1.763.246-2.672A44.11 44.11 0 0 1 230 235h2l-.188-2.938c-.016-3.987 1.106-7.253 2.454-10.972.82-2.334 1.34-4.65 1.734-7.09h2l.113-1.871c.419-5.388 1.343-10.069 3.188-15.145.809-2.295 1.312-4.583 1.699-6.984h2l1-10h2l.113-2.055c.472-6.676 1.706-12.622 3.887-18.945h-2l-2.5 2.5-2.5 2.5h-2l-1 3h-3l-.75 1.938C237 171 237 171 234.937 171.563L233 172l-1 3h-2l-.688 1.75c-1.672 2.867-3.584 4.387-6.312 6.25h-3l-1 4-4 1v2c-1.313 1.625-1.313 1.625-3 3h-3v2c-1.973 2.349-3.003 3.001-6 4l-1 2h-2v2h-4l-1-5h-2l-1-5h-2l-1-5h-2l-1-6h-2c-1.801-3.827-2.281-6.779-2-11l1-2h3l1-3h2v-2l3-1 1-2h2v-2l1.938-.313L199 158l1-3h3v-2h2v-2l1.938-.313L209 150l1-3h3v-2h2l1-3h3l1-3h2v-2h3l1-3h2v-2l1.875-.25c2.308-.538 2.308-.538 3.125-2.75l1-2a93.365 93.365 0 0 1 4-1l1-3h3l1-4 5-1 1-3h2v-2h2v-2c1.77-2.328 2.816-2.953 5.688-3.688L261 107l.313-1.938L262 103l3-1 1.5-1.563C268 99 268 99 271 99v-2h-2v-2l-2.125-.063c-3.707-1.208-5.08-3.144-7.445-6.148-1.389-1.826-1.389-1.826-3.098-3.348C255 84 255 84 254.812 81.312L255 79l6-1v-2l1.938-1.313c2.561-2.095 2.714-3.47 3.062-6.687h2l-.035-2.125c-.055-5.736.179-11.203 1.035-16.875h2l.25-3.125c1.029-5.316 2.929-8.542 7.313-11.75C281 33 281 33 284 33v-2c3.725-.863 7.179-1.135 11-1.125l3.063-.008c2.754.125 5.255.512 7.937 1.133v2l2.188.188c4.636 1.339 6.952 4.566 9.625 8.437C319 44 319 44 319 47h2c1.1 7.018 1.097 13.906 1 21h2l.813 2.875c.937 3.378.937 3.378 4.187 5.125v2l2.438-.063C334 78 334 78 335 79c-.237 6.28-.237 6.28-3.25 9.125L329 90l-2.688 2.75C324 95 324 95 322 95v2h-3v2l2.313.313c2.871.734 3.917 1.359 5.687 3.687v2h2v2l3 1v2l1.875.25c2.794.986 2.842 2.184 4.125 4.75 2.05.805 2.05.805 4 1v2l3 1v2h3v2l3 1v2l4 1v2h2v2l1.813.313c2.5.785 3.562 1.656 5.187 3.687v2h3c1.688 1.5 1.688 1.5 3 3l2.313-.938A110.556 110.556 0 0 1 378 137v-2l5-1 1-3h3l1-4 5-1v-2l4-1v-2h3l1-3h3v-2l4-1v-2h2v-2l3-1 1-2 3-1 1-2h3v-2l5-1 1-3h2v-2h2v-2l5-1 1-3c1.559-1.387 1.559-1.387 3.438-2.688l1.87-1.324C444 86 444 86 446 86v-2l3-1 1-2h3l1-3h3v-2a264.271 264.271 0 0 1 5-3l1-2 3-1 1-2 3-1-2.688-1.875c-4.169-3.466-6.524-8.06-8.312-13.125-.133-2.813-.133-2.813 0-5h-2V25h2l1-8h2l.813-2.75c1.111-3.043 1.911-4.974 4.187-7.25 2.688-.75 2.688-.75 5-1V4c10.883-5.108 24.196-5.916 35 0Zm-66 128v2l-5 1v2h-2v2l-4 1v2l-1.688.25c-3.005.975-4.885 2.758-7.312 4.75l-3 1v2l-4 1v2h-3l-1 2-3 1v2l-3 1c.64 2.032.64 2.032 2 4 2.555.812 2.555.812 5 1v2c3.221 2.316 3.221 2.316 7 3v2h3v-5l9 1 1-3h2l1-16h2l1-5h2v-3l1.938-.375L443 139c1.354-2.709 1.065-5.01 1-8-1.224-.075-1.224-.075-3 1Zm82 3a8566.99 8566.99 0 0 0-.155 30.878 3715.3 3715.3 0 0 1-.071 14.339c-.033 4.616-.05 9.233-.059 13.85a863.979 863.979 0 0 1-.032 5.271c-.022 2.47-.025 4.94-.024 7.41l-.032 2.18c.031 5.266 1.315 9.224 3.373 14.072 3.472-.78 6.056-1.955 9-4v-2h3l1-2 3-1v-2l4-1v-2h3v-2l4-1v-2l5-1v-2h3l1-2 3-1 1-2 3-1v-2h3l1-3-2-3h-2l-1-5h-2l-1-7h-2l.176-1.793c.26-4.572.353-6.525-2.551-10.27-2.35-2.135-2.35-2.135-4.625-1.937v-2l-3-1-2-3h-3v-2h-2v-2l-3-1-3-3h-2v-2h-2v-2l-3-1-3-3h-2v-2h-2v-2h-3Zm-196 15 2 16h2l1 13h2l.148 2.379c.416 5.842 1.175 10.997 2.852 16.621.75 4.322 1.386 8.657 2 13h2l.148 2.379c.416 5.846 1.069 11.05 2.852 16.621.363 1.995.706 3.994 1 6h2l.148 2.633.227 3.492c.07 1.137.14 2.274.21 3.445.412 3.407 1.303 6.196 2.415 9.43.421 2.284.797 4.576 1.125 6.875l.508 3.492L352 268h2v7l-3.613.148-4.7.227c-.785.03-1.57.062-2.38.094l-2.295.117-2.11.095c-2.227.24-2.227.24-4.902 2.319.405 2.903.806 5.535 1.938 8.25 1.593 4.124 2.27 8.411 3.062 12.75h2l1 8h2l1 8h2l.113 1.688c.421 4.885 1.33 8.982 3.188 13.515.865 2.224 1.331 4.443 1.699 6.797l5-1 1-7h2c.84-1.768 1.672-3.54 2.5-5.313l1.406-2.988c1.282-2.677 1.282-2.677 1.094-5.699h2l1-5h2l1-6h2c1.257-2.906 2-4.796 2-8h2l.375-1.938L378 292l2-1c.407-2.322.744-4.657 1-7h2c.73-1.977 1.394-3.98 2-6l-1-2c-3.03-.658-3.03-.658-6-1v-2h-4v-2l-6-1v-2h-3v-4h2v-2h3c1.288-1.406 1.288-1.406 2.375-3.25 2.188-3.275 4.543-5.284 7.625-7.75 1.319-1.71 2.524-3.474 3.734-5.262 1.824-2.504 4.08-4.552 6.266-6.738l1-3c2.063-.688 2.063-.688 4-1v-2h2c1.37-1.636 2.7-3.307 4-5l1.75-1.688c1.48-1.251 1.48-1.251 1.25-3.312l3-1c1.66-1.522 1.66-1.522 3.188-3.375l1.605-1.836c1.487-1.844 1.487-1.844 1.207-4.789a99.185 99.185 0 0 0-5-3l-1-2-3-1-1-2c-2.527-.656-2.527-.656-5-1v-2c-3.221-2.316-3.221-2.316-7-3v-2l-3-1-1-2h-3l-1-3h-3v-2a264.271 264.271 0 0 0-5-3l-1-2-3-1-1-2c-2.527-.656-2.527-.656-5-1v-2h-3l-1-3h-3l-1-3h-3v-2h-2v-2l-4-1v-2l-2.938-1.375C342 161 342 161 341 159l-3-1-1-2c-1.724-1.022-3.45-2.041-5.21-3-1.645-.92-3.223-1.955-4.79-3Zm238 91 1 2Zm-6 3v2l-6 1v2h-3v2l-5 1v2l-2.688.125c-3.43.906-5.35 1.943-7.542 4.777-1.669 4.548.075 9.551 1.23 14.098h2l.184 2.16c.464 5.31.997 10.573 1.816 15.84h2l1 11h2l.148 2.16c.434 5.557 1.228 10.491 2.852 15.84.731 3.656 1.375 7.325 2 11h2v5h1v-10h2c.748-7.026 1.138-13.934 1-21h2c.748-7.026 1.138-13.934 1-21h2c.342-3.124.672-6.25 1-9.375l.29-2.637c.623-6.018.827-11.939.71-17.988h2v-11c-3.053-.158-3.053-.158-6 1Z"
        fill="#0078B8" />
    <path
        d="M584 134c2.938-.027 5.875-.047 8.813-.063l2.525-.025 2.432-.01 2.237-.016C602 134 602 134 605 135v2h3v2l4 1v2l3 1v4l3 1 1 8h2v18h-2v3h8v-2l14-1v-2l16-1v-2h3c1.423 3.823 2.24 6.913 2 11h2l1 10h2c2.106 5.528 3.379 10.07 3 16l-2.152.402-2.785.536-2.778.527c-2.238.312-2.238.312-3.285 1.535-1.666.04-3.334.043-5 0v2l-12 1v2l-8 2 1 6h2c1.257 2.906 2 4.796 2 8h2l1 6h2l1 7h2c.84 1.768 1.672 3.54 2.5 5.313l1.406 2.988C652 254 652 254 652 257h2l.77 2.012c2.136 5.525 2.136 5.525 4.918 10.738 1.588 2.724 1.95 5.14 2.312 8.25h2l1 6h2l.813 2.063c.891 2.206 1.838 4.39 2.812 6.562C672 296 672 296 672 299h2l1 6h2l1 7 3 1c2.757 4.896 4.827 10.348 4 16l-2 3h-2v2h-3l-1 3h-2l-1 3h-3l-.75 1.75c-1.444 2.6-2.985 4.328-5.25 6.25h-3l-1 3-4-1v-3h-2c-3.017-3.2-4.499-5.615-5-10l-3-1v-2h-2l-1-5h-2c-1.29-1.68-1.29-1.68-2.625-3.875l-1.352-2.18C637 321 637 321 637 319l-3-1v-3h-2l-.313-1.938L631 311l-3-1-1-5h-2l-1-5-3-1v-2h-5v2l-10 1v2l-8 1v2h-3c.03 1.794.03 1.794.063 3.625.006 3.555-.364 6.88-1.063 10.375h-2l-1 13h-2l-.148 2.816c-.386 6.379-.871 12.118-2.852 18.184-.37 2.328-.714 4.66-1 7h-2l-1 12h-65c-2.25-6.75-2.25-6.75-2-11h-2l-1-11h-2l-1-10h-2c-2.296-9.41-2.296-9.41-2-14h-2l-1-11h-2l-1-10h-2c-.338-1.582-.67-3.166-1-4.75l-.563-2.672C495 295 495 295 495 291h-2l-1-10h-2l-1-11h-2l-.332-1.871c-.988-5.28-2.26-10.263-4.082-15.317C482 251 482 251 482 249h-2c.14 2.146.287 4.292.438 6.438.08 1.194.162 2.39.246 3.62-.007 2.828-.007 2.828 1.316 3.942.526 4.065.76 8.163 1.063 12.25l.275 3.414c.593 7.793.771 15.522.662 23.336h2l1 22-8-1v-2l-2.25-.375c-2.564-.583-4.442-1.412-6.75-2.625l.016 1.655c.119 14.478-.263 28.886-1.016 43.345h-2v9h-53v-9h2l-.035-1.96c-.073-7.296.377-14.465 1.035-21.728.095-1.095.19-2.19.29-3.318.232-2.665.469-5.33.71-7.994h2l-.035-2.238c-.062-6.987.27-13.818 1.035-20.762h2v-10l-5-1-1 5-3 1-1 5h-2l-1 3h-2l-.25 2.125c-.93 3.565-2.517 5.965-4.75 8.875h-2l-1 5h-2l-.813 1.625L393 334h-2l-.313 2.313c-.734 2.871-1.359 3.917-3.687 5.687h-2l-1 5-3 1-1 5h-2v2h-5v-2l-2.527.105c-7.241.175-12.758-.373-19.473-3.105v-5h2l1-8 3-1 1-7h2l.25-1.938c1.045-4.267 2.89-8.093 4.75-12.062h2l1-5h2l1-6h2l2-8h2l1-5h2l1-7h2l1-8-6-1v-2h-4v-2l-6-1v-2h-3v-4h2v-2h3l.813-1.75c1.216-2.306 2.49-4.27 4.187-6.25h2l1-3h2l.813-1.75c1.216-2.306 2.49-4.27 4.187-6.25h2l.875-1.813c2.573-5.003 2.573-5.003 6.125-6.187l1-2h2l1-3h2l1-3h2l.25-1.75c.968-2.904 2.437-4.287 4.75-6.25h2c1.206-2.332 2.165-4.496 3-7l-2.438-.813L408 210l-1-3c-2.015-.733-2.015-.733-4-1v-2l-5-1v-2l-2.375-.938C393 199 393 199 391 198v-2l-4-1v-2h-3l-1-2-3-1v-2l-2.438-.813L375 186l-1-3c-2.015-.733-2.015-.733-4-1v-2l-5-1v-2h-3c-1.813-2.125-1.813-2.125-3-5 .857-4.668 2.682-6.783 6-10l1.438-2.938c1.731-3.394 3.884-5.384 6.562-8.062l1-2.75 1-2.25c2.625-.813 2.625-.813 5-1v2h2v2l2.5.625c3.806 1.495 6.482 3.424 9.668 5.938 2.484 1.949 4.635 3.371 7.644 4.375 3.25 1.083 6.158 2.475 9.188 4.062v2l1.813.375C415 167 415 167 418 169v2h3v-5h9l1-2h2l-.035-1.723c-.057-4.884.215-9.462 1.035-14.277h2l1-5h2v-3l4-1v-2c3.936-1.291 7.907-1.147 12-1.125l2.156-.012c8.568.016 8.568.016 12.406 3.387 8.097 9.135 7.772 18.666 7.917 30.297l.08 3.156.04 2.864c.469 2.843 1.292 3.576 3.401 5.433-.215 3.331-1.761 5.589-4 8h-3v2l-2.938.375L468 192l-1 2 1.688.75c2.736 1.48 4.989 3.185 7.312 5.25v2l1.625.7c3.088 1.69 5.691 3.857 8.375 6.113l1.578 1.29c3.246 2.71 5.814 5.587 8.422 8.897l3 2v2l1.723.738c3.527 1.955 6.114 4.853 8.96 7.68 2.217 1.856 2.217 1.856 4.977 1.445 2.488-.732 2.488-.732 4.34-2.863l1.875-.25c2.448-.625 2.448-.625 4-3.563 2.338-3.506 4.483-5.128 8.125-7.187h2v-2h3l1-3h3v-2l3-1 1-2h3v-2l4-1v-2l5-1v-2h3l1-3h3l1-3h3v-2h3c-.515-3.812-1.26-5.38-4-8v-3h-2l-1-7h-2c-.394-9.901-.332-21.809 6-30 7.509-7 7.509-7 11-7v-2h4v-2Zm-19 107 1 2Zm-6 3v2l-6 1v2h-3v2l-5 1v2l-2.688.125c-3.43.906-5.35 1.943-7.542 4.777-1.669 4.548.075 9.551 1.23 14.098h2l.184 2.16c.464 5.31.997 10.573 1.816 15.84h2l1 11h2l.148 2.16c.434 5.557 1.228 10.491 2.852 15.84.731 3.656 1.375 7.325 2 11h2v5h1v-10h2c.748-7.026 1.138-13.934 1-21h2c.748-7.026 1.138-13.934 1-21h2c.342-3.124.672-6.25 1-9.375l.29-2.637c.623-6.018.827-11.939.71-17.988h2v-11c-3.053-.158-3.053-.158-6 1Z"
        fill="#80B5E1" />
    <path
        d="M817 400h50v207h-51c1-18 1-18 3-22h-2l-2 5h-2l-1 3h-2l-.625 1.75c-1.902 3.113-4.238 4.457-7.375 6.25h-3v2h-3v2c-6.632 1.698-12.667 2.31-19.5 2.25l-2.684.023c-7.378-.021-14.235-.762-20.816-4.273v-2l-4-1v-2l-2.438-.813L744 596l-1-3-3-1-1-5h-2l-1-5h-2c-10.56-26.746-11.119-58.396-3-86h2l1-7h2l1-6h2l.625-2.563c1.681-4.202 4.04-7.373 7.375-10.437h2l.813-1.875C751 466 751 466 754 464h3v-2h3v-2l7-1v-2c9.837-1.27 19.154-1.173 29 0v2l1.828.148 2.422.227c.789.07 1.578.14 2.39.21 2.446.43 4.208 1.201 6.36 2.415v2l2.938.375L815 465l1 2 1-67Zm-21 92v2h-3c-2.061 2.326-2.061 2.326-4 5l-1.75 1.625c-1.586 1.435-1.586 1.435-1.25 4.375h-2c-1.592 5.57-2.207 10.211-2 16h-2c-.058 3.854-.094 7.708-.125 11.563l-.05 3.29c-.036 5.813.194 10.671 2.175 16.147l1.125 3.438L784 558h2l1 5h3v2c3.418 2.54 5.758 3.364 10 3v-2l7-1v-2h2c3.303-3.452 3.303-3.452 4-8h2c2.632-4.956 2.289-9.914 2.266-15.375l.005-3.037c.002-2.114-.002-4.23-.01-6.344-.011-3.232 0-6.465.012-9.697 0-2.057-.003-4.115-.007-6.172l.012-2.923c-.032-4.575-.078-8.31-2.278-12.452h-3v-2c-1.207-1.708-1.207-1.708-3-3h-4v-2h-9ZM0 400h120v36H50v50h57v34H50v49h76v38H0V400Z"
        fill="#0078B8" />
    <path
        d="m310.004 399.867 2.302-.003c1.605 0 3.209.001 4.813.006 2.412.005 4.823 0 7.235-.007 8.935-.003 17.746.268 26.646 1.137v2l1.977-.035c4.8-.05 9.3.04 14.023 1.035v2h4v42c-4.403 0-6.2-.263-10-2v-2l-10-1v-2c-1.174-.09-1.174-.09-2.371-.184l-3.067-.253-3.058-.247C340 440 340 440 339 439a103.535 103.535 0 0 0-5.063-.563l-2.785-.253L329 438v-2h-8v2h-6v2l-6 1-1 5h-2v11h2c4 4.47 4 4.47 4 7l4 1v2l1.75.375c2.273.631 4.175 1.514 6.25 2.625v2l5 1v2l2.313.375C334 476 334 476 337 478v2l5 1v2l2.438.813L347 485l1 3c2.015.733 2.015.733 4 1v2l2.438.813L357 493l1 3 3 1 1 4 3 1v2l3 1v2h2c2 3 2 3 2 6h2l1 5h2l1 5h2l1 10h2c1.014 5.03 1.15 9.834 1.125 14.938l.012 2.341c-.012 7.146-.743 13.432-3.512 20.096l-1.273 3.148C378 576 378 576 375 577l-1 5h-2l-2 5h-2l-1 3h-3v2l-4 1v2c-2.905 2.042-4.401 3-8 3v2l-8 1v2h-5v2c-10.014 1.714-19.73 2.324-29.875 2.25l-2.145-.005c-13.057-.039-25.996-.826-38.98-2.245v-2h-10v-2h-2v-43c4.388.878 8.667 1.898 13 3v2h6v2l10 1v2h33v-2l6-1 .25-1.75c.968-2.904 2.437-4.287 4.75-6.25h2v-7h-2l-.688-2.188c-1.56-3.344-3.685-5.253-6.312-7.812l-1-3-3-1v-2l-4-1v-2h-3v-2l-4-1v-2c-2.652-1.075-5.284-2.095-8-3l-1-2-3-1v-2h-3l-1-2-3-1v-2l-4-1v-2h-3v-2l-3-1v-2l-2.25-.75c-3.045-1.384-4.665-2.644-6.75-5.25-.75-2.75-.75-2.75-1-5h-2c-3.418-4.246-4.567-7.593-5-13h-2l-1-8h-2c-1.159-5.517-1.148-10.892-1.125-16.5l-.012-2.8c.007-4.68.17-9.098 1.137-13.7h2l1-8h2l.438-2.313C262 427 262 427 263 424h2l.188-1.75c1.144-3.17 3.138-4.244 5.812-6.25l2.688-2.75C276 411 276 411 278 411v-2l6-1v-2c7.286-3.429 7.286-3.429 12-3v-2c4.692-.923 9.239-1.146 14.004-1.133Z"
        fill="#0077B7" />
    <path
        d="M591 459h50l1 104h2l1 2 3 1v2h2v-2l7-1 1-4 4-1v-2h2l1-5h2l1-6h2v-88h50v148h-50c0-6.352.215-11.815 1-18h2l-1-4-.688 1.75c-1.641 2.814-3.748 4.277-6.312 6.25l-1 2h-2l-.813 1.875C660 599 660 599 657 601h-3v2h-3v2c-7.247 1.736-14.122 2.337-21.563 2.313l-2.958.048c-9.228.007-16.802-2.243-24.479-7.361-4-4.308-4-4.308-4-7h-2c-1.765-3.088-2-4.233-2-8h-2c-.91-3.107-1.124-5.88-1.12-9.113l-.004-3.127.01-3.413v-3.608c0-3.26.006-6.52.013-9.78.006-3.409.006-6.817.008-10.226.003-6.452.01-12.905.021-19.358.011-7.347.017-14.694.022-22.04.01-15.112.028-30.224.05-45.335Z"
        fill="#0078B8" />
    <path
        d="m437.408 451.886 3.158.016 3.409.01 3.587.025 3.6.014c2.946.012 5.892.028 8.838.049v2l2.195-.07c5.418-.101 9.706.054 14.805 2.07 1.994.37 3.993.713 6 1v2l2.812.375C489 460 489 460 492 462v2l4 1v2h3c4.31 3.552 6.604 8.53 7.477 13.969.241 2.679.424 5.343.523 8.031h2l1 79 2 1v2h8c.025 4.824.043 9.648.055 14.471.005 1.643.012 3.285.02 4.927.013 2.356.018 4.711.023 7.067l.015 2.238c0 1.766-.051 3.532-.113 5.297-4.494 4.494-19.761 2.185-25.625 2.187l-3.852.038c-6.531.01-12.284-.237-18.523-2.225v-2h-2v-2l-4-1v-2l-3-1-2-2-1.813 2.437C457 600 457 600 454 601l-1 2c-7.86 3.853-15.163 4.182-23.813 4.187l-2.869.038c-7.178.014-14.21-.153-20.318-4.225v-2l-6-1v-2l-3-1v-2h-2l-2-5h-2l-1-5h-2l-1-9h-2v-27h2l1-8h2l1-5h2l.812-2.313c1.14-2.577 2.002-3.957 4.188-5.687h2l1-3h2v-2h3v-2l5-1v-2l6-1v-2c5.823-1.968 10.834-3.402 17-3v-2h26l-1-14h-2l-.313-1.938L456 492l-3-1v-2l-14-1v-2h-2v2l-17 1v2l-9 1v2h-4v2l-6 1v2c-1.666.043-3.334.04-5 0-1.961-1.961-1.211-5.714-1.238-8.395l-.025-2.253c-.014-1.578-.024-3.156-.032-4.734-.017-2.41-.061-4.82-.105-7.23-.01-1.531-.019-3.063-.026-4.595l-.053-2.182c.015-3.467.223-5.28 2.372-8.06 2.286-1.683 3.555-2.114 6.357-2.301L407 459v-2c4.763-.953 9.167-1.083 14-1v-2l2.809-.184 3.628-.254 3.622-.246c3.06-.329 3.433-1.292 6.35-1.43ZM450 542v2l-3.313-.063c-3.63-.122-3.63-.122-6.687 1.063v2h-3c-2.4 1.938-2.998 2.994-4 6a85.035 85.035 0 0 0-.125 5l-.008 2.625c.037 2.525.037 2.525 1.133 5.375h2v2l5 1v2h6v-2l6-1v-2l4-1v-2h2c1.174-2.349 1.115-3.738 1.098-6.352l-.01-2.578-.026-2.695-.013-2.719c-.012-2.219-.03-4.437-.049-6.656h-10ZM202.938 451.375l3.54.13c8.392.365 8.392.365 9.522 1.495 1.682.233 3.371.413 5.063.563l2.785.253L226 454v2l2.809.148 3.629.227 3.62.21c.971.138 1.942.274 2.942.415 1.64 3.279 1.12 6.906 1.098 10.508l-.005 2.547c-.005 2.69-.018 5.38-.03 8.07A6319.916 6319.916 0 0 1 240 497l-7-1v-2h-4v-2l-10-1v-2l-13-1v-2h-13v2l-7 1v2l-1.5 1.313c-1.772 1.647-1.772 1.647-1.688 4.375L183 499h3v2l6 1v2l8 1v2l2.063.375c3.365.716 6.637 1.654 9.937 2.625v2l5 1v2h3v2l6 1v2l4 1v2h3v2l3 1v2l3 1 1 4 3 1v2l3 1v4h2c2.558 5.867 2.296 11.6 2.25 17.875l.023 3.184c-.015 6-.529 11.196-2.273 16.941h-2l-.313 2.313c-.734 2.871-1.359 3.917-3.687 5.687h-2l-.688 2.438L238 592c-1.658.373-3.326.707-5 1l-1 2-1 2c-2.625.75-2.625.75-5 1v2l-9 1v2h-4v2c-9.588 1.61-18.773 2.322-28.5 2.25l-3.907-.012c-11.273-.1-22.4-.935-33.593-2.238v-2h-8v-2h-9v-41l7 1v2h4v2l9 1v2l10 1v2h6v2h24v-2h3v-2l2-1v-5h-2c-1.625-1.375-1.625-1.375-3-3v-2l-4-1v-2h-3v-2l-6-1v-2l-5-1v-2h-5v-2l-7-1v-2l-2.188-.25c-3.377-.9-5.16-2.517-7.812-4.75l-3-1c-4-4.457-4-4.457-4-7h-3c-2.076-2.875-3.354-5.514-4-9h-2l-1-7h-2c-1.132-4.527-1.149-8.868-1.125-13.5l-.012-2.262c.007-3.88.19-7.449 1.137-11.238h2l1-8h2l.188-2.188c1.538-5.325 6.457-8.634 10.812-11.812h2v-2c2.905-2.042 4.401-3 8-3v-2l9-1v-2c12.045-3.75 24.456-3.086 36.938-2.625Z"
        fill="#0077B7" />
    <path
        d="M526 400h50v207h-50V400ZM482 249h7v2l2.125.75C494 253 494 253 496.875 255c3.456 2.212 6.17 3.05 10.125 4v2c7.816 2.623 7.816 2.623 16 3v-2l5-1v-2l9-1-2 3c-.024 2.982-.024 2.982.375 6.188l.336 3.292L536 273h2c1.229 6.068 2.276 11.799 2 18h2l1 11h2l.367 2.16c.734 4.191 1.458 8.264 2.696 12.34 1.282 4.788 1.598 9.566 1.937 14.5h2c.03 3.146.047 6.292.063 9.438l.025 2.662c.021 5.716-.277 11.237-1.088 16.9l-1 1-1 11h-32c-2.25-6.75-2.25-6.75-2-11h-2l-1-11h-2l-1-10h-2c-2.296-9.41-2.296-9.41-2-14h-2l-1-11h-2l-1-10h-2c-.338-1.582-.67-3.166-1-4.75l-.563-2.672C495 295 495 295 495 291h-2l-1-10h-2l-1-11h-2l-.332-1.871c-.988-5.28-2.26-10.263-4.082-15.317C482 251 482 251 482 249Z"
        fill="#0078B8" />
    <path
        d="M421 294h6v2l2.172.375c2.853.63 5.375 1.524 8.078 2.625l2.64 1.063C442 301 442 301 443 302c.259 3.256.435 6.487.563 9.75l.128 3.193c.652 19.006.384 38.044.309 57.057h-30v-9h2l-.035-1.96c-.073-7.296.377-14.465 1.035-21.728l.29-3.318c.232-2.665.469-5.33.71-7.994h2l-.035-2.238c-.062-6.987.27-13.818 1.035-20.762h2v-10l-2-1Z"
        fill="#0379B9" />
    <path
        d="M552 337h1c.191 19.719.191 19.719-1 27l-1 1a235.648 235.648 0 0 0-1 7h-1a920.276 920.276 0 0 1-.063-5.438l-.035-3.058C549 361 549 361 550 360c.228-1.704.395-3.416.535-5.129l.264-3.135.264-3.298.275-3.311c.225-2.709.445-5.418.662-8.127Z"
        fill="#4499CE" />
    <path d="m370 180 7 2v2h2l1 4c-2.438-.813-2.438-.813-5-2l-1-3c-2.015-.733-2.015-.733-4-1v-2Z" fill="#5199C8" />
    <path d="M380 188c3.485.645 6.028 2.101 9 4l-1 4-1-3h-3l-1-2-3-1v-2Z" fill="#428BC2" />
    <path d="m362 175 6 1 1 4-4-1v-2h-3v-2Z" fill="#3C86B0" />
    <path d="M376 145h4v2h2l-1 2-2.375-.563c-2.596-.697-2.596-.697-4.625.563l2-4Z" fill="#489BD0" />
</svg>