<svg xmlns="http://www.w3.org/2000/svg" width="512" height="159">
    <path
        d="M146.313 24.188C150 25 150 25 152.5 26.5c1.694 2.823 2.259 5.072 2.059 8.375-1.147 4.361-4.413 7.057-7.559 10.125a1500.209 1500.209 0 0 0-3.137 3.172A981.006 981.006 0 0 1 135 57l2.4.028c3.596.054 7.191.138 10.787.222l3.776.043 3.642.098 3.349.063c3.718.666 5.402 1.885 8.046 4.546 1.166 4.008 1.432 6.053-.313 9.875C165 74 165 74 163 75c-2.25.155-4.504.25-6.758.316l-2.01.063c-2.118.066-4.238.125-6.357.183l-4.309.131c-3.522.107-7.044.209-10.566.307.636.594 1.272 1.189 1.928 1.8a730.918 730.918 0 0 1 7.044 6.733c1.012.971 2.03 1.935 3.056 2.891 8.463 7.904 8.463 7.904 9.699 11.96.09 3.525-.527 5.366-2.727 8.116-3.799 1.9-6.888 2.49-11 1.5-3.297-2.188-5.902-4.946-8.621-7.805l-2.38-2.407a952.885 952.885 0 0 1-7.436-7.663c-1.688-1.72-3.378-3.437-5.069-5.152a1501.495 1501.495 0 0 1-9.203-9.441l-1.858-1.925c-2.577-2.89-2.975-5.56-2.878-9.42.909-4.465 4.288-7.1 7.445-10.187 1.102-1.122 2.202-2.246 3.3-3.371 5.433-5.533 10.878-11.003 16.845-15.965 1.98-1.72 1.98-1.72 4.054-4.078 6.545-7.178 6.545-7.178 11.113-7.398Z"
        fill="#A2B7E3" />
    <path
        d="M32 25c7.765 5.28 14.326 13.174 20.939 19.808 2.014 2.02 4.035 4.035 6.055 6.05l3.846 3.849 1.83 1.824c5.119 5.148 5.119 5.148 5.83 9.594-.53 4.114-.933 4.766-3.596 7.66l-1.932 2.116L63 78l-1.733 1.858c-3.67 3.888-7.42 7.7-11.173 11.508a564.956 564.956 0 0 0-4.058 4.18 611.781 611.781 0 0 1-5.938 6.075l-1.797 1.897c-3.021 3.007-5.277 4.828-9.557 5.506C25 109 25 109 22 107c-2-3-2-3-2.75-6.313C20.346 95.3 23.161 92.802 27 89l3.36-3.398C33.551 82.38 36.77 79.185 40 76l-2.583-.012a821.642 821.642 0 0 1-9.532-.14 318.978 318.978 0 0 0-4.118-.044c-1.978-.009-3.957-.053-5.935-.097l-3.602-.048C10.092 74.815 8.585 73.28 6 70c-.656-4.082-.52-6.125 1.6-9.688C10 58 10 58 13.209 57.432l3.745.08 2 .021c2.1.028 4.198.09 6.297.154 1.427.026 2.854.048 4.281.069 3.49.055 6.98.141 10.469.244-3.749-4.42-7.552-8.607-11.834-12.514-7.86-7.262-7.86-7.262-8.729-12.486.088-3.208.506-3.926 2.563-6.563 3.868-1.853 5.75-2.23 10-1.437Z"
        fill="#0758B8" />
    <path
        d="M90 89c2.434 1.336 2.434 1.336 4.438 3.375l2.484 2.457 1.42 1.467c1.987 2.039 4.017 4.031 6.049 6.025C118.855 116.59 118.855 116.59 125 124l1.704 2.008C128 128 128 128 127.875 131.563c-1.236 4.853-1.236 4.853-3.875 6.437-3.188 1.125-3.188 1.125-7 1-3.124-1.84-5.481-4.415-8-7a2001.47 2001.47 0 0 0-3.328-3.328 672.081 672.081 0 0 1-5.28-5.315c-2.904-3.058-2.904-3.058-6.392-5.357l.048 2.599c.05 3.19.088 6.38.117 9.571.015 1.38.035 2.759.061 4.138.037 1.986.052 3.972.067 5.958l.048 3.618c-.37 3.376-.98 4.725-3.341 7.116-3.454 1.234-6.89 1.35-10.375.25C79 150 79 150 77 147c-.227-2.91-.227-2.91-.195-6.418l.02-3.799.05-3.97c.01-1.336.02-2.671.027-4.006.024-3.27.057-6.538.098-9.807-3.887 3.334-7.735 6.672-11.344 10.309l-1.59 1.572a174.333 174.333 0 0 0-3.132 3.195c-2.987 2.903-4.935 4.273-9.184 4.33C48 138 48 138 45.5 137.062c-2.09-2.875-2.102-5.07-2.03-8.574 1.056-4.957 4.79-8.025 8.307-11.46l2.424-2.45c1.693-1.7 3.398-3.388 5.113-5.065 2.616-2.568 5.18-5.18 7.743-7.8 1.654-1.648 3.31-3.293 4.97-4.936l2.312-2.367C79.318 89.622 83.02 87.51 90 89Z"
        fill="#0858B8" />
    <path
        d="M92 11c3.438 1.688 3.438 1.688 6 4l2.375 2.125c2.407 4.259 2.391 8.094 1.625 12.875-2.613 5.133-5.54 8.18-11 10-5.584.366-9.226.255-14-3-3.318-3.58-4.262-6.296-4.375-11.063.265-5.537 1.13-8.5 4.813-12.75C81.767 9.825 86.796 10.162 92 11Z"
        fill="#0657B8" />
    <path
        d="M268 72h7v30l-8.188.313-2.551.137c-4.093.076-5.835-.147-9.273-2.595-3.314-4.76-2.912-9.282-1.988-14.855 1.875-3.25 1.875-3.25 5-5 3.379-.377 6.618-.296 10 0v-8Z"
        fill="#115AB9" />
    <path
        d="M310 80c3.686 1.613 4.754 2.63 7 6 .646 4.923 1.073 9.498-1.875 13.625-3.675 2.378-6.105 2.622-10.5 2.75l-3.46.148C298 102 298 102 295.644 99.758 293.31 95.843 292.786 92.522 293 88c3.306-8.004 9.094-8.961 17-8Z"
        fill="#145CBA" />
    <path
        d="M464 81c2.397-.109 4.79-.188 7.188-.25l2.04-.102c3.38-.066 5.69.313 8.74 1.79 3.02 3.808 2.584 7.103 2.344 11.812l-.068 2.547A347.565 347.565 0 0 1 484 103h-7v-2l-1.5 1c-3.756 1.502-6.45 1.386-10.5 1-2.063-1.563-2.063-1.563-3-4 .064-3.623.202-6.002 2.5-8.875 3.715-1.672 7.465-1.875 11.5-2.125l-1-2h-11v-5Z"
        fill="#125AB9" />
    <path
        d="m356.25 79.75 2.828-.078C362 80 362 80 368 83v19h-6v-2l-1.219 1.477c-2.233 1.91-3.38 1.927-6.281 1.898l-2.344.023c-2.692-.497-3.581-1.174-5.156-3.398-.39-2.725-.136-5.231 0-8 4.97-2.434 8.346-3.346 14-3l-2-4-10 1v-5c2.537-1.268 4.416-1.204 7.25-1.25Z"
        fill="#0955B8" />
    <path
        d="m191.563 72.625 3.378.04c2.885.316 4.61.838 7.059 2.335v6l-2.063-1c-3.505-1.193-6.254-1.273-9.937-1-3.212 1.671-3.212 1.671-3.73 4.602l-.458 3.023-.48 3.04c-.11.77-.22 1.54-.332 2.335h2l2 3c2.067.44 2.067.44 4.375.313l2.336-.012c2.469-.325 4.14-1.07 6.289-2.301.188 3.375.188 3.375 0 7-5.15 3.433-11.024 2.967-17 2-3.52-2.043-5.354-4.294-7-8-1.101-5.757-.26-11.617 2-17 3.778-3.778 6.271-4.51 11.563-4.375Z"
        fill="#115BBA" />
    <path
        d="M208 80c2.605-.08 5.207-.14 7.813-.188l2.236-.076c5.487-.074 5.487-.074 7.67 1.518 1.592 2.17 1.63 3.308 1.574 5.976l-.03 2.432c-.024.833-.05 1.667-.076 2.525l-.04 2.561c-.036 2.084-.09 4.168-.147 6.252l-3.938-.063A59.19 59.19 0 0 0 219 101l-1 1c-1.96.203-1.96.203-4.375.25l-2.398.078C209 102 209 102 207.234 100.703c-2.051-2.83-1.594-5.338-1.234-8.703 1.137-1.676 1.137-1.676 3-3 2.918-.512 2.918-.512 6.188-.688l3.292-.199L221 88v-3h-13v-5Z"
        fill="#0453B7" />
    <path
        d="m390 80 3 2v5l-12-2v4l3.75-.188c2.715.02 4.213.172 6.75 1.25C393 92 393 92 393.625 95.439 393 99 393 99 390.75 101.438c-4.727 2.659-10.517 2.04-15.75 1.562l-2-1v-6l1.703.496c2.428.533 4.566.603 7.047.567l2.422-.028L386 97v-1l-2.117-.586-2.758-.789-2.742-.773C376 93 376 93 374 91c-.5-3.375-.5-3.375 0-7 4.524-4.643 9.851-4.91 16-4Z"
        fill="#175DBB" />
    <path
        d="M422 81h7l1 16h7V81h6v21h-9l-1 1c-7.288.588-7.288.588-9.746-1.441-1.903-3.884-1.571-7.55-1.442-11.809l.042-2.547c.035-2.068.089-4.136.146-6.203Z"
        fill="#0854B8" />
    <path
        d="M301 44c2.875 1.438 2.875 1.438 5 4 1.306 4.321 1.527 7.761-.25 11.938-2.53 2.982-4.241 3.987-8.125 4.562C294 64 294 64 291.062 61.562c-2.385-3.344-2.796-6.385-2.542-10.437 1.497-6.624 6.374-8.106 12.48-7.125Z"
        fill="#4081CC" />
    <path
        d="M81.375 56.875 85 57c2.542 0 5.086-.056 7.625-.188L96 57c2 3 2 3 2.063 5.688-1.695 5.28-5.4 9.839-10.293 12.546L86 76a615.404 615.404 0 0 1-3.875-3.75l-2.18-2.11c-2.579-2.837-3.831-4.943-4.195-8.765.423-4.017 1.728-4.356 5.625-4.5Z"
        fill="#6F99D6" />
    <path
        d="M401 45c3.236 1.743 3.824 2.472 5 6 .37 5 .08 7.972-3 12-3.232 1.616-6.506 1.575-10 1-2.97-1.98-4.655-3.352-5.406-6.938-.203-4.454.589-7.486 3.406-11.062 3.185-1.593 6.533-1.391 10-1Z"
        fill="#4382CC" />
    <path
        d="M417 82v6l-1.625-1c-2.968-1.25-5.183-1.278-8.375-1-2.17 1.759-2.17 1.759-2.23 3.91-.308 3.857-.308 3.857 1.23 7.09 3.836.145 7.323.177 11-1v6c-4.191 2.096-9.448 1.558-14 1-2.974-2.216-4.37-3.74-6-7-.544-4.54-.623-7.954 1.75-11.938 5.557-5.094 11.419-5.374 18.25-2.062Z"
        fill="#145BBA" />
    <path
        d="M321 81h7l4 13 5-13h7l-2.875 7.688c-.27.72-.539 1.442-.816 2.185-1.396 3.726-2.811 7.44-4.309 11.127h-8c-1.344-3.33-2.676-6.663-4-10l-.934-2.34C321.89 86.634 321 84.277 321 81Z"
        fill="#0B57B8" />
    <path
        d="M322 38h5c1.508 2.6 3.006 5.204 4.5 7.813.43.737.859 1.475 1.3 2.236l1.231 2.158 1.143 1.984C336 54 336 54 336 57h2V38h3v26h-5l-10-19-1 19h-3V38Z"
        fill="#4784CD" />
    <path
        d="M348 45c1.603-.108 3.207-.186 4.813-.25l2.707-.14c2.48.39 2.48.39 4.293 1.921 1.634 3.398 1.51 6.538 1.375 10.219l-.042 2.113A394.56 394.56 0 0 1 361 64h-3v-2l-3 2c-6.11.546-6.11.546-8.938-1.188-1.45-2.472-1.485-3.99-1.062-6.812 1.23-1.645 1.23-1.645 3-3 2.262-.293 2.262-.293 4.688-.188l2.449.083L357 53l-1-4h-9l1-4Z"
        fill="#4A86CE" />
    <path d="M450 73h7v30h-7V73Z" fill="#155BBA" />
    <path d="M490 81h7v3l2.25-1.5C502 81 502 81 506 81v7h-9v15h-7V81Z" fill="#1B5FBB" />
    <path d="M234 80h7l1 2 3-2c2.688-.125 2.688-.125 5 0v6l-8 1-1 15h-7V80Z" fill="#1359B9" />
    <path
        d="M221 88v3l.125 2.5C221 96 221 96 219 99l2 1c-3.098 2.065-3.954 2.295-7.5 2.313l-2.344.05c-2.692-.453-3.557-1.175-5.156-3.363-.636-5.94-.636-5.94 1.125-8.875C211.34 87.596 216.222 87.886 221 88Z"
        fill="#1B5FBB" />
    <path
        d="M360 90c2 2 2 2 2.125 4.625L362 97l-2 1v3l-1 2c-1.437.081-2.874.14-4.313.188l-2.425.105C350 103 350 103 348.219 101.75c-2.15-3.087-1.4-6.088-1.219-9.75 4.81-2.405 7.624-3.625 13-2Z"
        fill="#165DBB" />
    <path
        d="m476 87 1 3-2.438.375L472 91l-1 2h6c.188 2.375.188 2.375 0 5l-3 2 1 2c-3.197 1.599-6.53 1.496-10 1-2.063-1.563-2.063-1.563-3-4 .063-3.598.165-5.99 2.5-8.813 3.683-1.749 7.504-2.461 11.5-3.187Z"
        fill="#1B60BC" />
    <path
        d="M410 45h3v2l3-2c6.08-.543 6.08-.543 8.707 1.008 2.057 3.169 1.605 6.535 1.48 10.18l-.04 2.271c-.036 1.847-.09 3.694-.147 5.541h-3l-.184-3.027-.253-3.91-.247-3.903c.035-3.02.035-3.02-1.316-4.16a99.984 99.984 0 0 0-5 0c-1.913 3.266-2.357 5.994-2.625 9.75l-.227 2.984L413 64h-3V45Z"
        fill="#3B7ECB" />
    <path
        d="M188 44h3v2l3-2c6.08-.543 6.08-.543 8.707 1.008 2.057 3.169 1.605 6.535 1.48 10.18l-.04 2.271c-.036 1.847-.09 3.694-.147 5.541h-3l-.184-2.773-.254-3.602c-.08-1.183-.162-2.367-.246-3.586-.127-2.954-.127-2.954-1.316-5.039-2.416-.167-2.416-.167-5 0-2.77 2.77-2.398 4.765-2.625 8.625l-.227 3.602L191 63h-3V44Z"
        fill="#3A7FCB" />
    <path
        d="M224 39h3v5h5v3h-5v13h5l-1 4c-4.439.36-4.439.36-6.656-1.063-2.061-2.971-1.63-5.567-1.531-9.124l.082-3.856L223 47h-4v-3h4l1-5Z"
        fill="#6797D3" />
    <path
        d="M299.125 47.063C302 48 302 48 304 51c.466 3.654.47 5.339-1.688 8.375C300 61 300 61 297.438 61.5 295 61 295 61 293.188 59.375c-1.54-3.083-1.684-4.967-1.187-8.375 2.206-3.31 3.106-4.018 7.125-3.938Z"
        fill="rgba(241,244,250,0)" />
    <path
        d="M442 45c1.742 1.004 1.742 1.004 3 3 .217 2.811.283 5.388.188 8.188l-.042 2.271c-.035 1.847-.089 3.694-.146 5.541h-2v-2l-2-1 1-6-8 1 1 7-3 1c-2-2-2-2-2.438-4.938C430 56 430 56 432.063 54.126c3.48-1.333 6.242-1.342 9.938-1.125v-4h-10v-3c3.115-1.558 6.604-1.565 10-1Z"
        fill="#2979C9" />
    <path
        d="M211.945 43.805 218 44l-1 4h-5l-1 3 2.313.875C216 53 216 53 219 55c.438 2.938.438 2.938 0 6-1.625 1.875-1.625 1.875-4 3-3.25.188-3.25.188-6 0l-1-4h7c-1.125-2.967-1.715-3.857-4.625-5.313L208 53c-.438-3.563-.438-3.563 0-7 2-2 2-2 3.945-2.195Z"
        fill="#4684CD" />
    <path
        d="M257 45h2l.184 2.52.253 3.292.247 3.27c.218 2.978.218 2.978 1.316 5.918 2.416.25 2.416.25 5 0 2.27-3.404 2.365-5.165 2.625-9.188l.227-3.292L269 45h3v18l-5.813.688-3.269.386C260 64 260 64 258.125 63.031c-1.799-3.248-1.435-6.612-1.313-10.218l.042-2.272c.035-1.847.089-3.694.146-5.541Z"
        fill="#307BCA" />
    <path d="M282 81h6v20h-6V81Z" fill="#0051B7" />
    <path d="M450 37h4v28h-4V37Z" fill="#5F94D2" />
    <path
        d="M245 40h3v5h5v2h-5c.06 1.96.149 3.918.25 5.875l.14 3.305c.298 2.953.298 2.953 2.657 4.203L253 61v3c-6.875-.875-6.875-.875-8-2a184.94 184.94 0 0 1-.063-7.563l.014-2.154c.012-1.76.03-3.522.049-5.283h-4v-3h4v-4Z"
        fill="#2F7BCA" />
    <path
        d="M377 45v3l-3.438.438c-3.37.174-3.37.174-4.562 1.562-.098 1.497-.13 3-.125 4.5l-.008 2.469c-.092 2.026-.092 2.026 1.133 3.031 2.328.368 4.662.702 7 1v3c-2.928.298-5.144.496-8 0-3.095-2.579-4.554-4.126-5.477-8.004-.272-3.777.391-5.868 2.477-8.996 4.03-2.687 6.24-2.403 11-2Z"
        fill="#357DCA" />
    <path
        d="M279 40h3v5h5v2h-5l1 13 4 1v3c-2.875.125-2.875.125-6 0-2-2-2-2-2.195-5.477.013-1.383.037-2.765.07-4.148l.027-2.14c.024-1.746.06-3.49.098-5.235h-4v-2h4v-5Z"
        fill="#397CCA" />
    <path
        d="M306.625 85.313C309 86 309 86 310 87c.36 7.459.36 7.459-2 11-2.5.375-2.5.375-5 0-2.723-4.084-2.385-6.146-2-11 3-2 3-2 5.625-1.688Z"
        fill="#F1F3F9" />
    <path
        d="M268 85c.027 1.812.046 3.625.063 5.438l.035 3.058C268 96 268 96 267 97c-2.938.25-2.938.25-6 0-2.314-3.47-2.51-4.918-2-9 2.823-3.137 4.953-3.12 9-3Z"
        fill="#F0F2F8" />
    <path
        d="m208 47 .125 2.75c1.158 4.303 3.189 4.976 6.875 7.25v3h-7v3h-4a487.44 487.44 0 0 1-.188-6.875l-.105-3.867L204 49c3-2 3-2 4-2Z"
        fill="#ECF0F8" />
    <path d="M180 38h3v25h-3V38Z" fill="#377BC9" />
    <path
        d="M295 45c7.492-.368 7.492-.368 9.707 1.238 2.356 3.21 2.416 6.872 2.293 10.762-1.562 3.67-2.66 4.773-6 7-2.688.125-2.688.125-5 0a56.54 56.54 0 0 1 7-4c.081-1.437.14-2.874.188-4.313l.105-2.425c-.115-2.322-.115-2.322-1.606-4.043-2.507-1.811-4.686-1.42-7.687-1.219l1-3Z"
        fill="#2F7AC9" />
    <path
        d="M442 55c.22 3.217.268 5.434-1.125 8.375C439 65 439 65 435.812 65.25L433 65v-2h2l-1-7c2.709-1.354 5.01-1.065 8-1Z"
        fill="#78A2D8" />
    <path d="M322 38h1v5h2v21h-3V38Z" fill="#1D75C8" />
    <path d="M338 38h3v26l-4-1h3v-6h-2V38Z" fill="#1674C8" />
    <path d="M235 44h3v19h-3V44Z" fill="#2A79C9" />
    <path d="M381 45h3v19h-3V45Z" fill="#3A7ECA" />
    <path
        d="M207 80h1v5l2-1c1.498-.095 3-.13 4.5-.125l2.406-.008C219 84 219 84 221 85v3c-1.768.25-3.54.474-5.313.688l-2.988.386C210 89 210 89 208.156 87.72c-1.71-2.541-1.355-4.74-1.156-7.719Z"
        fill="#CFD6EA" />
    <path
        d="M224 47h2l1 12 5 1-1 4c-2.375.125-2.375.125-5 0-2-2-2-2-2.195-5.477.013-1.383.037-2.765.07-4.148l.027-2.14c.024-1.746.06-3.49.098-5.235Z"
        fill="#2F78C9" />
    <path
        d="M403 48h2c1.538 4.614 1.747 8.437-.375 12.875C403 63 403 63 401 64c-2.333.04-4.667.043-7 0v-1l8-1-.035-2.809c-.01-1.197-.018-2.395-.027-3.629l-.036-3.62C402 49 402 49 403 48Z"
        fill="#2D79C9" />
    <path
        d="M373.188 44.875 377 45v3l-3.438.438c-3.37.174-3.37.174-4.562 1.562a235.648 235.648 0 0 0-1 7h-1l-1-5h-2c1.755-5.13 3.596-7.308 9.188-7.125Z"
        fill="#4B87CE" />
    <path d="M353.563 54.938 357 55v5l-7 1a88.406 88.406 0 0 1-1-5c1-1 1-1 4.563-1.063Z" fill="#FBFCFD" />
    <path d="M348 45c1.624-.08 3.25-.14 4.875-.188l2.742-.105L358 45l2 3-3 4-1-3h-9l1-4Z" fill="#548BCF" />
    <path
        d="M477 93v5l-7 1-1-5c2.709-1.354 5.01-1.065 8-1ZM362 92v5c-2.709 1.354-5.01 1.065-8 1 .375-2.438.375-2.438 1-5 2.463-1.231 4.28-1.072 7-1Z"
        fill="#DEE3F1" />
    <path d="M218 55h1c.25 2.813.25 2.813 0 6-1.625 1.875-1.625 1.875-4 3-3.25.188-3.25.188-6 0l-1-4 9-1 1-4Z"
        fill="#4888CF" />
    <path
        d="M245 47h1v13l3-1c2.188.938 2.188.938 4 2v3c-6.875-.875-6.875-.875-8-2a184.94 184.94 0 0 1-.063-7.563l.014-2.154c.012-1.76.03-3.522.049-5.283Z"
        fill="#4B85CD" />
    <path d="m442 45 3 4h-13v-3c3.11-1.555 6.63-1.727 10-1Z" fill="#2B78C9" />
    <path d="m221 92-1 5h-6l-1-4c2.709-1.354 5.01-1.065 8-1Z" fill="#F0F2F8" />
    <path d="M282 72h7v5h-7v-5Z" fill="#1959BA" />
    <path d="M434 56h7l-1 5h-6v-5Z" fill="#F7F9FC" />
    <path d="M432 54c2.762 2.762 2.579 5.207 3 9l-3 1c-2-2-2-2-2.25-5 .25-3 .25-3 2.25-5Z" fill="#3E80CB" />
    <path
        d="m347 57 1 3c1.874.802 1.874.802 4.063 1.188l2.222.48L356 62l-1 2c-6.75.125-6.75.125-9-1a99.984 99.984 0 0 1 0-5l1-1Z"
        fill="#347CCA" />
    <path
        d="m401 59 1 3c-1.456.363-2.915.715-4.375 1.063l-2.46.597C393 64 393 64 391 63l1-3 3.938.063A59.19 59.19 0 0 0 400 60l1-1Z"
        fill="#578DD0" />
    <path d="M357 55c2.29 3.435 2.178 4.985 2 9l-1-2h-7c3.75-2 3.75-2 6-2v-5Z" fill="#588BCF" />
    <path d="M218 55h1c.188 2.875.188 2.875 0 6l-3 2c-3.688-.875-3.688-.875-7-2v-1l8-1 1-4Z" fill="#739CD5" />
    <path d="m214 53 4 2v5h-3l-1-7Z" fill="#317AC9" />
    <path d="M301 44v1l-6 1-1 4-4-2c3.343-4.28 5.709-4.407 11-4Z" fill="#6996D3" />
    <path d="M380 37h5v4h-5v-4Z" fill="#77A2D8" />
    <path d="M228 60h4l-1 4h-5v-2h2v-2Z" fill="#6898D4" />
    <path d="M393 45c7.508-.37 7.508-.37 10 1.5l1 1.5-3 2-1-4h-7v-1Z" fill="#5187CD" />
    <path d="M350 55h7v5l-1-4c-2.915 1.074-4.778 1.778-7 4l1-5Z" fill="#D5DFF0" />
    <path d="M434 45c5.373-.352 5.373-.352 8 0 2 2 2 2 3 4h-5l1-3h-7v-1Z" fill="#568BCF" />
    <path d="M390 52h1l2 8h-4l1-8Z" fill="#317BCA" />
    <path d="M194 44h7v3h-6l-1-3Z" fill="#5389CE" />
</svg>