<svg xmlns="http://www.w3.org/2000/svg" width="589" height="441">
    <path
        d="m172.519 10.876 2.397.01h2.513c2.754 0 5.508.009 8.262.016l5.713.005c5.023.003 10.045.013 15.067.024 6.021.012 12.041.017 18.062.023 9.156.01 18.311.029 27.467.046v81c-4.179.697-7.505 1.123-11.638 1.114h-3.275l-3.485-.016-3.607-.005a6027 6027 0 0 1-11.37-.03c-2.574-.006-5.148-.01-7.723-.014-6.3-.011-12.601-.028-18.902-.049l.016 2.092c.02 3.157.034 6.314.047 9.47l.025 3.292.01 3.212.016 2.936c-.127 3.351-.64 6.678-1.114 9.998h-25c-.023-14.586-.04-29.171-.052-43.757-.005-6.772-.012-13.544-.023-20.316-.011-6.53-.017-13.058-.02-19.588-.002-2.497-.005-4.994-.01-7.491-.008-3.485-.009-6.969-.009-10.453l-.01-3.163.004-2.86-.003-2.5c.267-4.07 3.26-2.99 6.642-2.996ZM191 32c-.011 13.703-.011 13.703.438 27.375l.119 2.766.127 2.632.11 2.326c.104 1.987.104 1.987 1.206 3.901h34l.5-11.062.158-3.384c.356-8.21.342-16.31.342-24.554h-37Z"
        fill="#AD2A1C" />
    <path d="M299 133h86v81h-61v31h-25V133Zm25 21v39h36v-39h-36Z" fill="#AB2515" />
    <path
        d="m305.519 10.876 2.397.01h2.513c2.754 0 5.508.009 8.262.016l5.713.005c5.023.003 10.045.013 15.067.024 6.021.012 12.041.017 18.062.023 9.156.01 18.311.029 27.467.046v81l-60 1-1 31h-25c-.023-14.586-.04-29.171-.052-43.757-.005-6.772-.012-13.544-.023-20.316-.011-6.53-.017-13.058-.02-19.588-.002-2.497-.005-4.994-.01-7.491-.008-3.485-.009-6.969-.009-10.453l-.01-3.163.004-2.86-.003-2.5c.267-4.07 3.26-2.99 6.642-2.996ZM324 32v40l11.25.063 3.466.027c7.144.019 14.176-.383 21.284-1.09.172-3.875.336-7.75.5-11.625l.145-3.258C360.98 48.055 361 40.086 361 32h-37Z"
        fill="#898779" />
    <path
        d="M166 133h86v81h-61v31h-24c-1.168-11.986-1.128-23.893-1.098-35.926l.005-6.603c.003-5.752.013-11.504.024-17.256.012-6.924.017-13.847.023-20.771.01-10.481.029-20.963.046-31.444Zm25 21v39h37v-39h-37Z"
        fill="#888779" />
    <path
        d="m263 10 25 1v113h-86v-21c5.813-.144 11.625-.287 17.438-.427 1.97-.048 3.939-.096 5.908-.146 12.22-.305 24.43-.5 36.654-.427l-.016-2.093c-.132-20.828.148-41.645.516-62.47l.036-2.052c.15-8.462.306-16.923.464-25.385Z"
        fill="#AC2416" />
    <path
        d="M395 133h25v112h-87l1-21c3.866-.024 7.731-.043 11.597-.055 1.915-.007 3.831-.02 5.747-.033 14.586-.036 29.041.6 43.656 1.088v-92Z"
        fill="#AB2416" />
    <path
        d="M395 11h25v112l-29 .5-8.988.158c-12.316.211-24.632.394-36.95.436l-3.07.02-2.77.001-2.413.006C335 124 335 124 334 123l-1-20h62V11Z"
        fill="#888779" />
    <path d="M263 133h24v112h-85v-20h61v-92Z" fill="#868476" />
    <path
        d="M300 134h84v4h-80v-2h-2l1 8h18v8l3-2c2.764-.103 5.412-.091 8.168.023l2.408.076c2.538.082 5.075.179 7.611.276 1.721.058 3.442.116 5.163.172 4.217.14 8.433.293 12.65.453v2h-37v41h38v2h-9v2l2 1c-3.213 1.607-6.63.825-10.125.563l-2.285-.159c-1.864-.13-3.727-.266-5.59-.404v3h16v4l-3.176.113c-1.379.066-2.758.132-4.137.2l-2.091.068c-4.364.232-5.368.391-8.596 3.619l50 1v2h-61v31h-23V134Z"
        fill="#A82516" />
    <path
        d="M520.063 310.938 523 311c3.828 7.223 6.847 14.568 9.625 22.25 3.087 9.155 3.087 9.155 7.375 17.75 4.592 1.266 4.592 1.266 9 0 1.34-7.243 1.326-14.654 1.563-22l.13-3.793c.106-3.069.208-6.138.307-9.207l-6-2v-2h20v2l-6 2c-1.545 11.391-1.152 22.584 0 34 5.486.902 9.841 1.522 15-1 2.128-1.566 4.035-3.222 6-5-.51 4.38-1.306 7.47-4 11-2.335.601-2.335.601-5.114.568l-3.154-.002-3.4-.078-3.485-.021c-3.679-.028-7.356-.09-11.034-.154a4048.9 4048.9 0 0 0-7.475-.069c-6.113-.055-12.226-.139-18.338-.244v-2l6-1-.875-2.738-1.125-3.575-1.125-3.55C526 339 526 339 526 336c-7.461.214-7.461.214-13.652 3.703-1.973 3.901-2.913 7.947-3.348 12.297l5 1v2h-17v-2l2.342-1.278c3.275-2.122 3.857-3.654 5.193-7.28l1.264-3.362 1.264-3.517 1.275-3.413a477.977 477.977 0 0 0 6.863-19.904c1.15-3.233 1.15-3.233 4.861-3.308ZM519 321c-2.29 4.812-2.29 4.812-3 10 3.583 1.002 3.583 1.002 7 0l-3-10h-1Z"
        fill="#737465" />
    <path d="m399 226 1 4-4 1 2 2-2 3 4 1v3h16l1 3h-81v-16h57v2l6-3Z" fill="#AD2414" />
    <path
        d="m263 10 25 1v113h-86v-21c5.813-.144 11.625-.287 17.438-.427 1.97-.048 3.939-.096 5.908-.146 12.22-.305 24.43-.5 36.654-.427l-.016-2.093c-.132-20.828.148-41.645.516-62.47l.036-2.052c.15-8.462.306-16.923.464-25.385Zm2 4-.031 3.365c-.098 10.448-.2 20.896-.308 31.344-.056 5.372-.109 10.743-.158 16.115-.048 5.18-.1 10.361-.156 15.542-.02 1.98-.04 3.96-.056 5.94-.024 2.766-.054 5.531-.086 8.297l-.017 2.5c-.074 5.669-.074 5.669-1.188 7.897h-59v16h81c.058-18.589.058-18.589.098-37.178.012-7.578.026-15.156.053-22.735.022-6.108.034-12.215.039-18.323.003-2.334.01-4.668.021-7.001.015-3.261.017-6.522.016-9.784l.022-2.942-.008-2.69.005-2.338c-.132-2.325-.132-2.325-2.246-5.009-2.427-.404-2.427-.404-5.188-.25-.921.015-1.843.03-2.792.047-3.374.227-6.676.71-10.02 1.203Z"
        fill="#9B312B" />
    <path
        d="M6 301c4.447-.074 8.894-.129 13.342-.165 1.511-.015 3.023-.035 4.533-.061 2.18-.037 4.36-.054 6.54-.067l3.966-.048c4.53.427 7.887 1.761 11.264 4.841 3.865 4.964 4.78 8.218 4.355 14.5-2.09 5.804-5.746 9.353-11.238 12.133-3.464 1.088-6.45 1.06-10.075.992L22 333l2 17 7 3v2H7l1-3 5-1v-46l-7-1v-3Zm18 2c-3.418 3.418-2.056 12.781-2.068 17.424.008 3.192.032 6.384.068 9.576 6.048-.269 10.238-.918 15-5 2.965-3.558 3.485-6.575 3.281-11.074-.433-2.964-1.336-4.657-3.281-6.926-4.208-2.678-8.046-3.611-13-4Z"
        fill="#C7C8C0" />
    <path
        d="M213.188 310.75c1.219-.03 1.219-.03 2.462-.063 6.85-.043 13.099 1.119 18.85 5 2.133 3.29 2.693 6.462 2.5 10.313-1.897 5.393-1.897 5.393-5.113 7.164L230 334c6.93 8.377 13.929 15.605 24 20v2c-7.899.653-12.855.11-19-5a280.647 280.647 0 0 1-7.703-6.914c-4.508-4.094-7.105-5.49-13.297-6.086.033 1.938.102 3.876.188 5.813l.105 3.269c.417 3.136.417 3.136 3.258 4.68L220 353v2h-20v-2l5-2v-35l-5-2v-2c4.414-1.24 8.63-1.222 13.188-1.25ZM214 314v20c8.389.867 8.389.867 12-2.125 2.22-3.192 2.92-5.002 3-8.875-.973-3.487-2.176-5.739-5-8-2.502-.576-2.502-.576-5.188-.688L214 314Z"
        fill="#95968A" />
    <path
        d="m366.625 310.813 2.871-.038c8.833-.018 17.486.35 24.504 6.225 5.502 5.697 6.372 10.18 6.27 17.93-.662 7.534-4.532 11.8-10.075 16.625-5.751 3.786-11.84 3.873-18.507 4.132l-2.725.143c-5.781.255-11.228-.053-16.963-.83v-2l5-2v-35l-5-2v-2c4.84-1.396 9.624-1.184 14.625-1.188ZM366 315c-.115 12.38.104 24.65 1 37 7.022.389 13.985.555 19.535-4.36 4.799-5.428 5.882-10.16 5.715-17.21-.606-5.893-3.83-9.729-8.25-13.43-5.407-2.458-12.284-3.905-18-2Z"
        fill="#AAAC9F" />
    <path
        d="M95 314c5.115 3.443 8.213 7.13 10 13 1.28 7.992-.381 14.39-5 21-4.487 4.937-8.908 7.684-15.637 8.371-8.258.253-15.683.143-22.363-5.371-4.942-5.794-7.326-10.985-7.215-18.594C55.355 326.03 58.102 320.2 63 316c9.458-6.814 21.703-7.332 32-2Zm-27 5c-3.765 4.907-5.458 9.973-4.746 16.23 1.194 6.421 3.423 10.86 8.559 15.082 5.217 2.763 9.246 3.178 14.874 1.563 4.095-1.294 5.973-3.291 8.313-6.875 1.94-6.66 3.022-13.578 0-20-3.894-6.24-3.894-6.24-10-10-6.587-.856-11.991-.764-17 4Z"
        fill="#CACBC4" />
    <path d="M299 133h86v81h-61v31h-25V133Zm1 1v110h23v-31h61v-71h-80l-1 2-1-8h2v2h80v-4h-84Z" fill="#BF5E56" />
    <path
        d="M395 133h25v112h-87l1-21c3.866-.024 7.731-.043 11.597-.055 1.915-.007 3.831-.02 5.747-.033 14.586-.036 29.041.6 43.656 1.088v-92Zm2 3c-.095 2.8-.126 5.575-.114 8.375v2.66c0 2.917.009 5.834.016 8.75l.005 6.05c.003 5.318.013 10.636.024 15.954.012 6.375.017 12.75.023 19.126.01 9.695.029 19.39.046 29.085l-61 1v16c10.544.023 21.088.04 31.631.052 4.896.005 9.791.012 14.687.023 4.72.011 9.44.017 14.16.02 1.805.002 3.61.005 5.415.01 2.52.008 5.039.009 7.558.009l2.284.01c3.42.302 3.42.302 6.265-1.124.095-1.379.122-2.762.12-4.144l.004-2.707-.01-2.993v-3.133c0-3.436-.009-6.872-.016-10.308l-.005-7.126c-.003-6.265-.013-12.53-.024-18.795-.01-6.388-.015-12.776-.02-19.163-.01-12.544-.028-25.087-.049-37.631-2.279-1.14-3.568-1.129-6.098-1.133l-2.427-.004-2.538.012-2.548-.012c-4.013-.399-4.013-.399-7.389 1.137Z"
        fill="#B3615A" />
    <path
        d="M149.5 315.688c4.184 3.87 6.135 7.538 6.883 13.218.247 6.524-.327 11.84-4.383 17.094-4.77 5.029-9.191 8.74-16.322 9.227-1.23-.01-2.46-.02-3.729-.032l-1.996-.008a909.247 909.247 0 0 1-6.266-.062c-1.422-.01-2.845-.02-4.267-.027-3.474-.022-6.947-.057-10.42-.098v-2l4-2v-35l-5-2v-2c12.993-3.364 29.505-2.096 41.5 3.688ZM121 314c-.465 18.547-.465 18.547 1 37 1.85 1.85 4.704 1.26 7.188 1.313 5.501-.055 8.69-.397 12.812-4.313 5.51-5.918 6.415-9.626 6.344-17.66-.638-6.2-3.276-9.652-8-13.508-4.083-2.237-7.147-2.491-11.719-2.582l-2.23-.09c-1.798-.07-3.597-.117-5.395-.16Z"
        fill="#8A8C7C" />
    <path
        d="M274 301c3.104-.029 6.208-.047 9.313-.063l2.67-.025 2.568-.01 2.364-.016C293 301 293 301 296 302v2l-1.955.653c-2.297 1.18-2.297 1.18-2.641 3.784l-.13 3.118-.17 3.55L291 319l-.057 2.016c-.156 5.78-.276 11.56-.344 17.342-.291 22.83-.291 22.83-7.599 31.642-4.452 3.922-6.938 5.278-12.957 5.234-2.861-.328-4.767-1.527-7.043-3.234l1-6 14 2c1.686-3.682 2.249-6.545 2.243-10.585l.01-3.316-.023-3.548v-3.664c-.004-2.55-.012-5.102-.024-7.653-.018-3.917-.02-7.834-.02-11.752l-.018-7.431-.003-3.567-.02-3.287-.011-2.902c.016-2.324.016-2.324-1.134-4.295a78.037 78.037 0 0 0-5-2v-3Z"
        fill="#C4C4BD" />
    <path
        d="m323 153 20.313-.063 6.403-.027 5.022-.008 2.636-.015h2.522l2.187-.007C364 153 364 153 367 154c1.207 3.621 1.181 6.966 1.203 10.738l.017 2.298c.01 1.605.016 3.21.02 4.814.01 2.443.04 4.885.072 7.328.007 1.562.012 3.123.016 4.685l.038 2.198c-.021 4.722-.96 7.888-3.366 11.939l-2-1v2l5 1v6l-2 1 2 1v2l-35 1c4-5 4-5 7.672-5.488 1.36.033 2.72.092 4.078.175l2.113.069c1.713.059 3.426.148 5.137.244v-4h-16v-3h17l-1-3h9v-2h-38v-41Zm1 1v39h36v-39h-36Z"
        fill="#AE2418" />
    <path
        d="M155 390c4.126-.075 8.252-.129 12.378-.165 1.4-.015 2.8-.035 4.201-.061 17.23-.314 17.23-.314 24.233 5.601 5.634 6.76 5.963 11.988 5.188 20.625-2.039 6.476-7.086 11.236-12.8 14.695-6.002 2.42-12.786 1.615-19.137 1.493-1.366-.016-2.731-.03-4.096-.042-3.323-.035-6.645-.084-9.967-.146v-2l1.955-.696c2.256-1.116 2.256-1.116 2.635-3.477.04-.888.082-1.776.125-2.69l.167-2.991L160 417l.16-3.056c.156-3.043.283-6.087.403-9.132l.13-3.173c.105-2.546.207-5.093.307-7.639l-6-2v-2Zm12 2 1 37c10.74.815 10.74.815 19-3 4.606-4.99 6.546-9.194 7-16-.56-6.327-3.269-10.812-8-15-5.973-3.467-12.209-3-19-3Z"
        fill="#96988C" />
    <path
        d="M299 312h18l-1 3c-2.063.688-2.063.688-4 1-1.233 17.073-1.233 17.073 5 32 4.45 2.752 8.922 2.529 14 2 4.113-1.542 5.558-2.337 8-6 .37-3.004.37-3.004.414-6.418l.117-3.799.094-3.97c.038-1.336.077-2.671.117-4.006.095-3.27.18-6.538.258-9.807l-5-2v-2h16c-1 3-1 3-2.5 4.25-3.016 3.519-2.55 9.128-2.676 13.598l-.072 2.584a393.376 393.376 0 0 0-.094 5.273c-.18 5.564-.918 8.902-4.658 13.295-5.568 4.204-9.401 5.168-16.313 5.25l-3.925.078c-6.563-.572-10.493-3.45-14.762-8.328-1.003-3.009-1.182-5.216-1.281-8.367l-.114-3.184-.105-3.324a1835.5 1835.5 0 0 0-.219-6.492l-.092-2.91c-.186-2.678-.479-5.132-1.189-7.723-1.968-1.36-1.968-1.36-4-2v-2Z"
        fill="#A1A497" />
    <path
        d="M161 312h33v10h-2l-.5-1.875c-1.973-2.796-4-3.08-7.258-3.754A179.94 179.94 0 0 0 174 315v16l14-1 1-4h2v14l-3-1v-3l-14-1 1 2c.071 2.374.084 4.75.063 7.125l-.028 3.883L175 351c2.44-.087 4.875-.194 7.313-.313l2.091-.068c3.983-.19 3.983-.19 7.451-1.974A280.344 280.344 0 0 0 195 344h2c.027 1.458.046 2.917.063 4.375l.035 2.46C197 353 197 353 196 355h-37v-2l6-2c.957-7.517 1.307-14.992 1.563-22.563l.13-3.634c.106-2.934.208-5.869.307-8.803l-6-2v-2Z"
        fill="#787A6C" />
    <path
        d="M471 314v10c-3.925-1.963-5.983-3.903-9-7-4.6-2.3-11.413-1.789-16.242-.316-2.835 1.465-4.723 3.272-6.695 5.753-1.96 6.572-2.04 13.523.062 20.063 3.384 4.513 7.365 8.022 12.875 9.5 5.27.48 8.521-.176 13-3l2.688-2.688L470 344h3c-.271 3.884-.785 5.732-3.25 8.813-4.692 3.732-9.812 3.394-15.625 3.437l-2.066.063c-6.476.049-10.867-1.808-16.247-5.5-5.368-5.369-7.05-9.812-7.25-17.438.163-4.85.594-8.312 3.438-12.375l1.563-2.563c10.32-10.32 24.59-9.18 37.437-4.437Z"
        fill="#888A7D" />
    <path
        d="m172.519 10.876 2.397.01h2.513c2.754 0 5.508.009 8.262.016l5.713.005c5.023.003 10.045.013 15.067.024 6.021.012 12.041.017 18.062.023 9.156.01 18.311.029 27.467.046v81c-4.179.697-7.505 1.123-11.638 1.114h-3.275l-3.485-.016-3.607-.005a6027 6027 0 0 1-11.37-.03c-2.574-.006-5.148-.01-7.723-.014-6.3-.011-12.601-.028-18.902-.049l.016 2.092c.02 3.157.034 6.314.047 9.47l.025 3.292.01 3.212.016 2.936c-.127 3.351-.64 6.678-1.114 9.998h-25c-.023-14.586-.04-29.171-.052-43.757-.005-6.772-.012-13.544-.023-20.316-.011-6.53-.017-13.058-.02-19.588-.002-2.497-.005-4.994-.01-7.491-.008-3.485-.009-6.969-.009-10.453l-.01-3.163.004-2.86-.003-2.5c.267-4.07 3.26-2.99 6.642-2.996ZM168 12v110h22l1-30 60-1V12h-83Z"
        fill="#DAA097" />
    <path
        d="M280 390c4.229-.087 8.458-.14 12.688-.188l3.63-.076 3.506-.029 3.222-.048c4.795.553 7.248 2.483 10.267 6.154 1.888 3.567 2.348 5.223 1.687 9.187-2.137 3.893-4.2 6.702-8 9-3.453.73-3.453.73-7.25 1.188l-3.828.48L293 416c.2 1.961.437 3.92.688 5.875l.386 3.305c.642 3.05.642 3.05 3.508 4.203L300 430v2h-18l1-3h2v-35l-5-2v-2Zm13 2v20c7.545-.26 7.545-.26 10.938-3.25 2.17-2.893 3.062-4.157 3.062-7.75-.917-3.75-.917-3.75-3-7-3.995-1.997-6.444-2-11-2Z"
        fill="#818275" />
    <path
        d="m361.563 397.25 3.878.203c3.63.558 5.6 1.439 8.559 3.547l1.813 1.25c1.997 2.944 1.597 5.297 1.187 8.75-2 3.438-2 3.438-4 6 4.818 5.119 9.358 9.65 15.566 13.027L390 431v2c-6.395.698-9.587-.452-14.77-4.207-2.212-1.778-4.317-3.635-6.418-5.543-3.085-2.8-5.671-4.318-9.812-5.25l1 2c.07 1.54.085 3.083.063 4.625l-.028 2.477L360 429l4 1v2h-15v-2l3-2c.422-2.554.654-4.868.75-7.438l.11-2.164c.242-5.858-.06-11.586-.86-17.398l-4-1v-2c4.64-.946 8.84-1.036 13.563-.75ZM359 400v16c5.268-.258 5.268-.258 9.938-2.313 1.302-2.068 1.921-3.22 2.062-5.687-1.282-3.56-2.099-5.492-5.438-7.375-2.77-.783-2.77-.783-6.562-.625Z"
        fill="#BEBFB7" />
    <path
        d="M391 398h14l-1 3h-2c-.146 3.395-.234 6.79-.313 10.188l-.126 2.908c-.121 5.94-.121 5.94 2.779 11.021 3.115 2.205 4.848 2.807 8.66 2.883 4.716-.681 4.716-.681 8.16-3.617 1.156-3.278 1.318-6.355 1.527-9.82l.262-3.934c.044-3.148.03-5.648-.949-8.629l-3-2v-2h13c-1 3-1 3-3 4-.859 3.458-1.042 6.771-1.035 10.313-.01 12.354-.01 12.354-2.738 16.16-2.035 1.494-3.894 2.578-6.227 3.527l-2 1c-7.365.682-13.126.75-19-4-3.69-5.483-3.543-10.99-3.688-17.375l-.103-3.098A773.138 773.138 0 0 1 394 401l-3-1v-2Z"
        fill="#A7A89F" />
    <path
        d="M545 312h20v2l-6 2c-1.545 11.391-1.152 22.584 0 34 5.486.902 9.841 1.522 15-1 2.128-1.566 4.035-3.222 6-5-.509 4.373-1.185 7.556-4 11-3.186.568-3.186.568-7.074.488l-2.072-.021a399.76 399.76 0 0 1-6.542-.154c-1.48-.026-2.96-.048-4.439-.069A826.716 826.716 0 0 1 545 355v-2l1.938-.5c2.426-1.403 2.426-1.403 2.656-4.719.633-6.24.767-12.516.968-18.781l.131-3.793c.106-3.069.208-6.138.307-9.207l-6-2v-2Z"
        fill="#B3B4AB" />
    <path
        d="M318 398h26v8l-3-1-1-2c-2.81-.692-2.81-.692-6.063-1.125l-3.347-.508L328 401v12l11-1v-3l3 1v9l-3 1v-3l-11-1v13c2.292-.06 4.584-.149 6.875-.25l3.867-.14c3.35-.236 3.35-.236 4.703-2.657L344 424h2v8h-30v-2l6-1c-.08-4.46-.193-8.917-.313-13.375l-.068-3.852-.107-3.671-.08-3.396L321 402l-3-2v-2Z"
        fill="#B9BBB2" />
    <path
        d="M205 398c4.125-.058 8.25-.094 12.375-.125 1.176-.017 2.351-.034 3.563-.05l3.398-.02 3.142-.032C230 398 230 398 232 400c.125 3.125.125 3.125 0 6l-4-2v-2l-12-1v12l11-1v-3h2v13c-2-1-2-1-3-4l-10-2v13l6.313-.813 3.55-.457c3.214-.748 4.082-1.302 6.137-3.73h2c.125 5.75.125 5.75-1 8h-29v-2l5-2c.116-4.104.187-8.207.25-12.313l.102-3.537.039-3.388.063-3.127c-.191-2.783-.191-2.783-2.478-4.37L205 400v-2Z"
        fill="#C4C6BD" />
    <path
        d="m263 10 25 1v113h-86v-1h85V12h-23l.016 8.338c.016 9.068.027 18.137.036 27.205.005 5.5.012 11.001.023 16.502.011 5.304.017 10.608.02 15.912.002 2.028.005 4.056.01 6.084.008 2.831.009 5.661.009 8.492l.01 2.568c-.01 5.785-.01 5.785-1.124 6.899-1.902.094-3.808.117-5.713.114h-3.7l-4.028-.016-4.099-.005c-3.602-.003-7.204-.013-10.806-.024-3.673-.01-7.346-.015-11.02-.02-7.21-.01-14.422-.028-21.634-.049v-1c5.813-.145 11.625-.287 17.438-.427 1.97-.048 3.939-.096 5.908-.146 12.22-.305 24.43-.5 36.654-.427l-.016-2.093c-.132-20.828.148-41.645.516-62.47l.036-2.052c.15-8.462.306-16.923.464-25.385Z"
        fill="#FAD1C1" />
    <path d="M168 12h83v79h-60l1-2 58 1V13l-81 1 1 105h6v2h13l-1-30h2v31h-22V12Z" fill="#95211B" />
    <path d="M7 302h15c.191 32.298.191 32.298-1 48l1.934.332 2.503.48 2.497.458L30 352l1 3H7v-2l7-1v-47l-7-2v-1Z"
        fill="#767767" />
    <path
        d="M406 312h17c-1 3-1 3-2.52 4.434-3.795 4.015-2.631 12.409-2.582 17.66.21 5.978.657 11.942 1.102 17.906l4 1v2h-17l1-3h2l.076-2.766c.095-3.402.195-6.803.296-10.204.044-1.47.085-2.939.125-4.408.058-2.118.122-4.235.187-6.352l.11-3.857c.176-2.916.54-5.576 1.206-8.413l-5-1v-3Z"
        fill="#B5B6AD" />
    <path
        d="M478 312h17c-1 3-1 3-4 5-.526 2.331-.526 2.331-.547 5.059l-.121 3.11-.082 3.269-.129 3.162c-.23 6.878.087 13.565.879 20.4l4 1v2h-17v-2l1.454-1.142c2.377-2.858 2.138-6.02 2.276-9.588l.122-2.274c.125-2.394.23-4.789.336-7.183.08-1.625.164-3.25.248-4.874.203-3.979.388-7.958.564-11.939l-5-1v-3Z"
        fill="#9B9D8F" />
    <path
        d="M280 303c6.152-.098 6.152-.098 8 0 1.663 1.663 1.144 3.657 1.161 5.944l.03 3.197.012 3.488.017 3.57c.01 2.503.016 5.006.02 7.508.01 3.815.04 7.629.072 11.443.007 2.43.012 4.861.016 7.291l.038 3.445c-.018 6.433-.669 11.252-3.366 17.114h-4l.013-2.168c.04-6.753.071-13.506.09-20.26.011-3.471.025-6.943.048-10.415.026-3.993.035-7.987.044-11.981l.032-3.766v-3.518l.014-3.089c-.254-2.951-1.003-5.127-2.241-7.803Z"
        fill="#7C7A6C" />
    <path
        d="m169 14 7 1-4 1v97l3 1 1-2h2v8l5-2v2l3 1c-1.646.027-3.292.046-4.938.063l-2.777.035C176 121 176 121 175 120h-5c-1-1-1-1-1.123-2.763l.003-2.343-.004-2.682.01-2.964v-3.104c0-3.404.009-6.807.016-10.21l.005-7.058c.003-6.207.013-12.413.024-18.619.01-6.327.015-12.654.02-18.982.01-12.425.028-24.85.049-37.275Z"
        fill="#B02314" />
    <path
        d="m323 153 20.313-.063 6.403-.027 5.022-.008 2.636-.015h2.522l2.187-.007C364 153 364 153 367 154c1.232 3.695 1.124 7.103 1.098 10.95l-.005 2.34c-.005 2.466-.018 4.932-.03 7.398-.006 1.672-.01 3.345-.014 5.017A5289.63 5289.63 0 0 1 368 192h-2v-32h-2l-1 34h-40v-41Zm1 1v39h36v-39h-36Z"
        fill="#C56C60" />
    <path
        d="M237 398h16v2l-5 1-1 27c7.162.22 7.162.22 13-2l2.313-1.125L264 424c-.547 3.375-1.055 5.082-3 8-2.522.34-2.522.34-5.664.293l-3.399-.03-3.562-.075-3.586-.042c-2.93-.035-5.86-.084-8.789-.146v-2l5-1-1-28-3-1v-2Z"
        fill="#B0B2A9" />
    <path d="M166 12h2v110h22V92h1v32h-25V12Z" fill="#CB8882" />
    <path
        d="M204 311c2.98-.082 5.957-.14 8.938-.188l2.517-.076c6.947-.08 13.205 1.01 19.045 4.952 2.133 3.288 2.693 6.46 2.5 10.312-1.897 5.393-1.897 5.393-5.113 7.164L230 334l1.32 1.504c3.923 4.474 7.815 8.972 11.68 13.496-3.873-1.576-6.247-4.077-9.125-7.063-3.116-3.402-3.116-3.402-6.875-5.937v-2l-3 1h-11v-23h-9v-1Zm10 3v20c8.389.867 8.389.867 12-2.125 2.22-3.192 2.92-5.002 3-8.875-.973-3.487-2.176-5.739-5-8-2.502-.576-2.502-.576-5.188-.688L214 314Z"
        fill="#E4E5DD" />
    <path
        d="M161 394h1v35l-2 1 7 1v-34h1v32c10.548-.04 10.548-.04 19-4 3.785-4.594 5.892-8.957 6-15-.699-6.178-3.183-10.178-7-15 4.218 1.506 5.775 4.24 8 8 1.095 3.285 1.1 5.737 1.063 9.188l-.028 3.292L195 418h3l2-2c-.51 4.187-1.633 6.179-4.625 9.125l-1.977 2.008c-7.588 5.908-15.059 5.233-24.335 5.055-1.366-.016-2.731-.03-4.096-.042-3.323-.035-6.645-.084-9.967-.146v-2l1.955-.696c2.256-1.116 2.256-1.116 2.635-3.477.04-.888.082-1.776.125-2.69l.167-2.991L160 417l.16-3.056c.156-3.043.283-6.087.403-9.132l.13-3.173c.105-2.546.207-5.093.307-7.639Z"
        fill="#BFBFB7" />
    <path
        d="M149.75 316.188 152 318l-1 2-1.875-1c-2.035-1.142-2.035-1.142-4.125-1v-3h-4v2l-20-3 2 37 13 1v1h-17l1-40-6 1 1 1c.101 2.727.14 5.429.133 8.156l.003 2.477c0 1.732-.001 3.464-.006 5.196-.005 2.66 0 5.32.007 7.98 0 1.678-.002 3.356-.004 5.035l.006 2.427c-.024 5.614-.024 5.614-1.139 6.729 3.896.03 7.792.047 11.688.063l3.341.025 3.233.01 2.967.016c2.696-.11 5.146-.509 7.771-1.114v-2l4 1c-7.501 4.91-14.858 4.465-23.5 4.25-1.409-.02-2.818-.038-4.227-.055A982.135 982.135 0 0 1 109 355v-2l4-2v-35l-5-2v-2c12.42-3.215 30.81-2.88 41.75 4.188Z"
        fill="#BEBFB7" />
    <path
        d="m140 314 5 1v3l3-1c4.518 2.397 6.5 4.15 8 9 .914 7.702.196 13.46-4 20l-2 1-2-3-1.355 1.496C140.64 351.86 140.64 351.86 136 352l2.188-1.625c4.189-3.538 8.521-7.444 9.085-13.133.236-7.82-.618-12.055-5.273-18.242-.72-1.645-1.416-3.302-2-5Z"
        fill="#BCBDB4" />
    <path
        d="m71 314-1.242 1.54-1.633 2.085-1.617 2.04C61.89 326.815 61.568 335.812 63 344c2.542 3.283 5.294 5.177 9 7-4.298 1.27-6.832.828-11-1-4.509-5.35-6.316-10.67-6.215-17.594.606-6.78 3.606-11.566 8.215-16.406 3.228-2.152 4.284-2.2 8-2Z"
        fill="#898B7C" />
    <path
        d="M471 314v10c-3.925-1.963-5.983-3.903-9-7-4.6-2.3-11.413-1.789-16.242-.316-4.333 2.24-6.29 4.752-7.758 9.316-.516 3.995-.811 7.977-1 12h-1v-14l-3 3a84.76 84.76 0 0 1 2-7v-3c1.645-1.352 1.645-1.352 3.813-2.625l2.144-1.29c8.933-4.747 21.027-2.414 30.043.915Z"
        fill="#C7C8C4" />
    <path
        d="M349 399h9l.184 3.832.253 4.98.12 2.526.127 2.432.11 2.237c.154 2.2.154 2.2 1.206 4.993.067 1.561.085 3.125.063 4.688l-.028 2.449L360 429l4 1v2h-15v-2l3-2c.422-2.554.654-4.868.75-7.438l.11-2.164c.242-5.858-.06-11.586-.86-17.398l-3-1v-1Z"
        fill="#717364" />
    <path
        d="M386 315c2.563-.5 2.563-.5 6 0 4.371 3.812 7.703 7.716 8.238 13.637.154 6.31.172 12.395-4.238 17.363-2.14.707-2.14.707-4 1-1.125-4.75-1.125-4.75 0-7 .124-2.247.176-4.5.188-6.75l.042-3.672c-.23-3.575-.83-6.29-2.23-9.578-2.001-1.42-2.001-1.42-4-2v-3Z"
        fill="#747667" />
    <path
        d="M335 312h16c-1 3-1 3-2.5 4.25-3.829 4.467-2.815 13.546-3.063 19.188l-.13 2.794c-.106 2.256-.208 4.512-.307 6.768h-3l-1 2-2-1 1-30-5-2v-2Z"
        fill="#6F7165" />
    <path
        d="M391 398h14l-1 3h-2l-1 25 3 1-2 3c-1.813-.125-1.813-.125-4-1-3.712-5.458-3.544-11.009-3.688-17.375l-.103-3.098A773.138 773.138 0 0 1 394 401l-3-1v-2Z"
        fill="#808172" />
    <path
        d="M167 316h1c.025 4.948.043 9.896.055 14.844.005 1.684.012 3.368.02 5.052.013 2.417.018 4.835.023 7.252l.015 2.29c0 5.334 0 5.334-1.113 7.562l28 1c-1.227-1.461-1.227-1.461-4.93-1.027-2.486.038-4.971.09-7.457.154l-2.418.033-2.218.051C176 353 176 353 173 351c-.22-2.95-.28-5.684-.188-8.625l.042-2.43c.035-1.982.089-3.963.146-5.945h15v2l-14-1 1 2c.071 2.374.084 4.75.063 7.125l-.028 3.883L175 351c2.44-.087 4.875-.194 7.313-.313l2.091-.068c3.983-.19 3.983-.19 7.451-1.974A280.344 280.344 0 0 0 195 344h2c.027 1.458.046 2.917.063 4.375l.035 2.46C197 353 197 353 196 355h-37v-2l6-2c.957-7.517 1.307-14.992 1.563-22.563l.13-3.634c.106-2.934.208-5.869.307-8.803Z"
        fill="#CFD0C9" />
    <path
        d="M300 134h84v1l-81 1c-.838 6.415-.838 6.415-1.158 12.758l-.03 2.583-.017 2.747-.03 2.96a4669.04 4669.04 0 0 0-.081 9.608l-.063 6.692c-.055 5.852-.105 11.705-.153 17.558-.05 5.979-.106 11.958-.161 17.938-.108 11.718-.21 23.437-.307 35.156h-1V134Z"
        fill="#982A23" />
    <path
        d="M263 12h1c.023 11.848.04 23.695.052 35.543.005 5.5.012 11.001.023 16.502.011 5.304.017 10.608.02 15.912.002 2.028.005 4.056.01 6.084.008 2.831.009 5.661.009 8.492l.01 2.568c-.01 5.785-.01 5.785-1.124 6.899-1.902.094-3.808.117-5.713.114h-3.7l-4.028-.016-4.099-.005c-3.602-.003-7.204-.013-10.806-.024-3.673-.01-7.346-.015-11.02-.02-7.21-.01-14.422-.028-21.634-.049v-1c5.813-.145 11.625-.287 17.438-.427 1.97-.048 3.939-.096 5.908-.146 12.22-.305 24.43-.5 36.654-.427l-.016-2.125c-.183-29.298.443-58.584 1.016-87.875Z"
        fill="#D09A92" />
    <path
        d="M527 321c1.758 2.636 2.754 4.74 3.84 7.676l1.033 2.76 1.064 2.877c3.026 10.499 3.026 10.499 9.75 18.062L545 353v2h-21v-2l6-1-.91-2.738c-.38-1.18-.76-2.36-1.153-3.575l-1.16-3.55C526 339 526 339 527 336l2 5c1.551-2.988 2.141-4.429 1.32-7.754l-1.195-2.808c-1.51-3.603-2.125-5.442-2.125-9.438Z"
        fill="#C3C4BE" />
    <path
        d="M512 324c1.37 3.956.778 5.332 0 10l14 1v1l-2.484.156c-6.148.436-6.148.436-11.168 3.547-1.973 3.901-2.913 7.947-3.348 12.297l5 1v2h-17v-2l2.333-1.251c3.378-2.215 3.967-3.968 5.343-7.73l1.318-3.525 1.318-3.682 1.377-3.716A985.067 985.067 0 0 0 512 324Z"
        fill="#BBBCB4" />
    <path
        d="m46 309 3 1c1.574 4.722 1.574 8.536-.25 13.188-3.909 6.282-3.909 6.282-8.137 7.5-5.925 1.19-11.584 1.51-17.613 1.312v-1l1.758-.297c6.241-1.195 10.924-2.826 15.055-7.953 1.566-3.627 1.854-6.817 2.187-10.75l3-1 1-2Z"
        fill="#7D7F71" />
    <path
        d="M551 316h4c1.555 3.11 1.24 6.433 1.316 9.852l.063 2.345c.066 2.476.125 4.952.183 7.428l.131 5.031c.108 4.115.207 8.23.307 12.344h17v1h-25l2-3c.172-2.686.232-5.265.195-7.95l-.008-2.34c-.011-2.466-.037-4.932-.062-7.397-.01-1.673-.02-3.346-.027-5.018-.022-4.099-.057-8.197-.098-12.295Z"
        fill="#707160" />
    <path
        d="M281 328h1v38h3c-1.724 4.389-4.83 6.915-9 9-5.416.355-8.51.367-13-3l1-6 14 2c2.123-4.34 2.34-8.401 2.414-13.145l.059-2.332c.06-2.445.106-4.89.152-7.336l.117-4.99c.096-4.065.18-8.131.258-12.197Z"
        fill="#D0D0CA" />
    <path
        d="M162 391h4l1 40h-8l1-2h2l-.108-3.38c-.13-4.125-.253-8.249-.374-12.373-.054-1.788-.109-3.576-.166-5.363-.082-2.564-.157-5.128-.23-7.693l-.083-2.436A172.754 172.754 0 0 1 161 392l1-1Z"
        fill="#757566" />
    <path
        d="M283 306h1v46h3l1-45h1c.076 7.117.129 14.233.165 21.35.015 2.42.035 4.838.061 7.257.037 3.485.054 6.97.067 10.455.015 1.075.03 2.149.047 3.256.001 6.29-.727 10.943-3.34 16.682h-4l1-60Z"
        fill="#7D7E71" />
    <path
        d="M100 322c1.938.813 1.938.813 4 2 2.213 6.64 1.774 13.178-1.188 19.5-2.04 3.653-3.77 5.97-7.812 7.5h-2c.494-2.571 1.19-4.331 2.508-6.629 1.792-4.05 1.971-7.315 2.055-11.683.061-2.59.202-5.104.437-7.688l2-1v-2Z"
        fill="#898C7D" />
    <path
        d="M192 28c4.75-.025 9.501-.043 14.252-.055 1.615-.005 3.23-.012 4.844-.02 2.326-.013 4.652-.018 6.978-.023l2.176-.015c3.81 0 6.967.356 10.75 1.113l-1 43h-1l-1-40-36-1v-3Z"
        fill="#9C2318" />
    <path
        d="M520.063 310.938 523 311c.697 1.287 1.382 2.58 2.063 3.875l1.16 2.18L527 319l-1 2-4-1 .656 2.082.844 2.73.844 2.708C525 330 525 330 525 333h-11l2-11-3 1c.475-1.814.955-3.626 1.438-5.438l.808-3.058c1.05-3.49 1.05-3.49 4.817-3.567ZM519 321c-2.29 4.812-2.29 4.812-3 10 3.583 1.002 3.583 1.002 7 0l-3-10h-1Z"
        fill="#8D8E83" />
    <path
        d="M245 401h1v29l15-1v3h-24c3-2 3-2 5-2-.01-.717-.02-1.433-.032-2.171-.041-3.235-.067-6.47-.093-9.704l-.05-3.418-.02-3.262-.032-3.015C242 406 242 406 244 404l1-3Z"
        fill="#848679" />
    <path
        d="M302 391c3.188-.375 3.188-.375 7 0 3.437 2.82 5.81 6.324 6.313 10.75-.474 4.92-2.828 7.811-6.313 11.188-2 1.062-2 1.062-4.188.875C303 413 303 413 302 411l1.938-1.313c2.33-1.6 2.33-1.6 3.062-4.687.396-6.135.396-6.135-1-12-1.984-1.284-1.984-1.284-4-2Z"
        fill="#888A7F" />
    <path
        d="M169 333h17v1h-13l1 17c2.236 1.118 3.649 1.194 6.133 1.316l2.441.127 2.551.12 2.574.13c2.1.107 4.2.207 6.301.307l1-4v5h-30l2-1c.469-2.032.469-2.032.633-4.473l.254-2.724.238-2.865.262-2.877c.213-2.353.414-4.707.613-7.061Z"
        fill="#747566" />
    <path
        d="M412 315c3.928 3.559 3.928 3.559 4.574 7.531l.113 3.969c.139 4.02.321 7.617 1.313 11.5-.016 2.29-.016 2.29-.25 4.625l-.203 2.352C417 347 417 347 414 349c-2.298-3.642-2.231-6.708-2.195-10.953l.008-2c.011-2.1.037-4.198.062-6.297.01-1.427.02-2.854.027-4.281.022-3.49.057-6.98.098-10.469Z"
        fill="#777868" />
    <path
        d="m439 344 1.574 1.242c6.142 4.745 10.385 7.463 18.426 6.758 3.735-1.42 5.853-2.853 8.688-5.688L470 344h3c-.271 3.884-.785 5.732-3.25 8.813-4.856 3.862-10.07 3.32-16.063 3.25l-2.244-.014c-1.814-.012-3.629-.03-5.443-.049l3-2-1.68-1.172-2.195-1.578-2.18-1.547c-2.03-1.778-2.924-3.23-3.945-5.703Z"
        fill="#C7C8C0" />
    <path
        d="M211 400h4c.025 3.951.043 7.902.055 11.853.007 2.006.02 4.012.033 6.018l.01 3.809.016 3.523C215 428 215 428 214 430l-4-1 1-29Z"
        fill="#767969" />
    <path
        d="M492.188 314.313 494 315l-3 2c-.526 2.331-.526 2.331-.547 5.059l-.121 3.11-.082 3.269-.129 3.162c-.23 6.878.087 13.565.879 20.4l-5-1c.069-4.788.157-9.575.262-14.362.034-1.628.062-3.257.084-4.885.034-2.342.086-4.682.142-7.023l.02-2.206c.086-2.979.157-5.043 1.887-7.527C490 314 490 314 492.188 314.312Z"
        fill="#8C8D80" />
    <path
        d="m366.625 310.813 2.871-.038c6.281-.012 12.474.32 18.504 2.225l2 2h-4l1 4-3.688-1.375c-10.253-3.386-20.588-3.94-31.312-3.625v-2c4.84-1.396 9.624-1.184 14.625-1.188Z"
        fill="#AFB0AA" />
    <path
        d="M280 390h26l-2 2 1.438 1.375c2.855 2.97 2.843 5.54 2.777 9.594-.318 3.004-1.3 4.72-3.215 7.031-3.936 3.17-7.025 3.383-12 3-1-1-1-1-1.114-3.041l.016-2.65.01-2.862.026-3.01.013-3.021c.012-2.472.03-4.944.049-7.416l-12 1v-2Zm13 2v20c7.545-.26 7.545-.26 10.938-3.25 2.17-2.893 3.062-4.157 3.062-7.75-.917-3.75-.917-3.75-3-7-3.995-1.997-6.444-2-11-2Z"
        fill="#C3C4BD" />
    <path
        d="m92 348 1 3 4-1c-3.878 4.308-6.909 5.81-12.707 6.336-1.368.03-2.737.042-4.106.039l-2.146.004c-5.726-.116-9.326-1.236-14.041-4.379 3.704-1.262 6.84-.807 10.688-.375 6.096.51 10.816.13 16.312-2.625l1-1Z"
        fill="#A3A49E" />
    <path
        d="M112 313h8v34h-1v-28c-1.257 1.03-1.257 1.03-1.082 3.253l.055 2.954.037 3.217c.035 2.247.074 4.495.117 6.742l.033 3.229.051 2.964c-.217 2.716-.82 4.324-2.211 6.641l-.044-2.782c-.061-3.415-.136-6.829-.218-10.243a624.728 624.728 0 0 1-.084-4.429c-.034-2.125-.086-4.25-.142-6.374l-.08-3.872c-.448-3.42-1.095-4.83-3.432-7.3Z"
        fill="#70725F" />
    <path
        d="M545 312h20v2l-6 2c-.957 7.517-1.307 14.992-1.563 22.563l-.13 3.634c-.106 2.934-.208 5.869-.307 8.803h-1l-1-35-9-1-1-3Z"
        fill="#898A7F" />
    <path
        d="M283 392h4v39l7-1-2-2c-.195-3.258-.195-3.258-.125-7.125l.055-3.883L292 414h11v1l-10 1c.2 1.961.437 3.92.688 5.875l.386 3.305c.642 3.05.642 3.05 3.508 4.203L300 430v2h-18l1-3h2c.05-4.948.086-9.896.11-14.844.01-1.684.024-3.368.04-5.052.025-2.417.036-4.835.045-7.252l.032-2.29c0-1.855-.105-3.71-.227-5.562l-2-2Z"
        fill="#CDCEC6" />
    <path
        d="M205 398c4.125-.058 8.25-.094 12.375-.125 1.176-.017 2.351-.034 3.563-.05l3.398-.02 3.142-.032C230 398 230 398 232 400c.125 3.125.125 3.125 0 6h-2l-2-5-17-1v29l-7 3v-2l5-2c.116-4.104.187-8.207.25-12.313l.102-3.537.039-3.388.063-3.127c-.191-2.783-.191-2.783-2.478-4.37L205 400v-2Z"
        fill="#A9ABA4" />
    <path
        d="M186 395c4.218 1.506 5.775 4.24 8 8 1.095 3.285 1.1 5.737 1.063 9.188l-.028 3.292L195 418h3l2-2c-.15 4.945-2.836 7.31-6.113 10.645C192 428 192 428 188 428c.441-3.001 1.086-5.165 2.5-7.875 2.645-5.51 2.944-10.323 1.313-16.125-1.398-3.44-3.516-6.098-5.813-9Z"
        fill="#C4C5BC" />
    <path d="M173 315h1v16l14-1 1-4h2v14l-3-1v-5l-16-1c-.942-4.71-.855-7.199-.063-11.813l.59-3.519L173 315Z"
        fill="#94958B" />
    <path
        d="M386 315c2.563-.5 2.563-.5 6 0 4.371 3.812 7.703 7.716 8.238 13.637.17 7.013-.55 11.37-4.238 17.363-1.265-2.53-.725-3.342 0-6v-3l2-2c.28-1.912.28-1.912.188-4l-.02-2.125c-.06-1.966-.06-1.966-1.168-3.875l-2 1c-2.063-.688-2.063-.688-4-2l-1-4c-1.984-1.284-1.984-1.284-4-2v-3Z"
        fill="#86887E" />
    <path
        d="M391 398h14l-1 3h-2l-1 21h-1l-.148-3.21-.227-4.165c-.03-.699-.062-1.397-.094-2.117-.126-4.21-.126-4.21-2.531-7.508l1-2h-2v20h-1l-1-22-3-1v-2Z"
        fill="#BCBCB5" />
    <path
        d="M280 303h8c.884 3.017 1.098 5.631 1.022 8.769l-.061 2.85-.082 3.053-.072 3.144c-.076 3.311-.16 6.623-.245 9.934l-.158 6.738c-.129 5.504-.264 11.008-.404 16.512-2-2-2-2-2.24-4.063l.013-2.57v-2.912l.032-3.15.008-3.22c.011-3.404.037-6.807.062-10.21.01-2.303.02-4.607.027-6.91.022-5.655.056-11.31.098-16.965l-1.875.625L282 305l-2-2Z"
        fill="#767461" />
    <path
        d="m390 344 2 1v2l2 1c-6.984 6.32-13.063 7.327-22.313 7.688l-2.724.142c-5.781.255-11.228-.053-16.963-.83v-2l2.605.035c16.998.874 16.998.874 32.395-5.035 1.974-2.065 1.974-2.065 3-4Z"
        fill="#A4A69D" />
    <path d="M282 391h10v21h-3v12h-1l-1-31-5-1v-1Z" fill="#737363" />
    <path
        d="M459 312v1l-11 1v2l-3.313 1.625c-3.833 2.246-5.292 4.035-6.687 8.375-.516 3.995-.811 7.977-1 12h-1v-14l-3 3a84.76 84.76 0 0 1 2-7v-3c6.045-6.297 16.036-5.239 24-5Z"
        fill="#A8A9A0" />
    <path
        d="M223 313c7.943.34 7.943.34 11.5 2.563 2.08 3.38 2.605 6.487 2.5 10.437-.938 2.5-.938 2.5-2 4h-2l-1-3-2 3-.008-2.23c-.052-5.648-.052-5.648-2.394-10.579-1.818-1.487-1.818-1.487-4.598-3.191v-1Z"
        fill="#95968E" />
    <path
        d="M232 424h2c.125 5.75.125 5.75-1 8h-28c2.953-1.968 4.605-2.39 8-3l2-1c1.604-.02 3.21.007 4.813.063 3.865.039 6.744-.126 10.187-2.063l2-2Z"
        fill="#A0A197" />
    <path
        d="m361.25 397.188 3.703.167C368 398 368 398 369.36 399.988L370 402l1 1c.04 1.666.043 3.334 0 5l-2-3c-2.915-3.835-4.604-3.458-10-5v16c6.145-1.557 6.145-1.557 11.063-5.188L371 409c-.299 3.486-1.035 5.046-3.188 7.875C365 419 365 419 361.75 418.875 359 418 359 418 358 417a56.726 56.726 0 0 1-.098-4.035l.01-2.451.026-2.577.013-2.587c.012-2.117.03-4.233.049-6.35l-10 1v-2c4.524-.909 8.645-1.072 13.25-.813Z"
        fill="#C8CABF" />
    <path d="M323 400h4v12h-2v4h2l1 14h-4c-.623-10.009-1.177-19.966-1-30Z" fill="#717463" />
    <path
        d="M340 345h4c-1.357 4.44-3.134 6.452-7 9-5.75 2.945-11.808 1.885-18 1l-3-1 1-3 3.324.105c1.455.029 2.91.056 4.363.082l2.186.077c4.6.063 7.501-.378 11.127-3.264l2-3Z"
        fill="#86887C" />
    <path d="M417 338h1l1 14 4 1v2h-17l1-3h4l1-7 2 2c2.125-3.188 2.502-5.265 3-9Z" fill="#747565" />
    <path
        d="M193 398h2l.813 1.813c1.029 2.217 1.029 2.217 2.738 3.48 2.036 2.398 1.849 4.103 1.824 7.207l.023 2.906C200 416 200 416 198.664 417.844 197 419 197 419 194 419l.07-2.633.055-3.492.07-3.445c-.198-3.487-1.064-6.15-2.195-9.43l1-2Z"
        fill="#737566" />
    <path
        d="M344 424h2v8h-25v-2l1.896-.12c2.828-.19 5.653-.41 8.479-.63l2.984-.188 2.852-.234 2.634-.19c2.343-.436 2.343-.436 3.454-2.69L344 424Z"
        fill="#9FA097" />
    <path
        d="M224 315c2.468 1.152 4.048 2.048 6 4 .565 2.655.738 5.291 1 8l2-1v4l2 1c-1.375 1.5-1.375 1.5-3 3h-2l1.32 1.504c3.923 4.474 7.815 8.972 11.68 13.496-3.823-1.57-6.201-3.999-9.063-6.938l-2.597-2.652L229 337a779.235 779.235 0 0 0-3-3l1-1.563c1.698-4.138 1.469-7.964.125-12.187-1.161-2.439-1.161-2.439-3.125-5.25Z"
        fill="#B9BAB2" />
    <path
        d="M335 312h16l-1 2h-9l1 2c.244 4.287.185 8.582.188 12.875l.037 3.629.005 3.488.013 3.199c-.242 2.794-.802 4.434-2.243 6.809-1.423-2.847-1.008-5.146-.879-8.32l.147-3.809.17-3.996.158-4.02c.13-3.285.265-6.57.404-9.855l-5-2v-2Z"
        fill="#E1E2DB" />
    <path
        d="M96 316c3.367 1.393 4.986 2.979 7 6l-1 2h-1l-1 3v-2h-2l1 3c-.036 6.726-.073 13.346-4 19l-2 1 .938-2.375c2.085-7.115 2.919-13.613.062-20.625a114.418 114.418 0 0 0-5-8c3.328 1.552 5.486 3.306 8 6l2-3-3-4Z"
        fill="#C3C4BA" />
    <path d="M14 350c5.75.875 5.75.875 8 2v-2l9 3v2H7v-2l7-1v-2Z" fill="#8F9088" />
    <path
        d="M557 338h1l1 12c8.783 1.363 8.783 1.363 16.7-2.25 1.47-1.206 2.89-2.474 4.3-3.75-.534 3.916-1.197 6.393-3 10l-20-1v-15Z"
        fill="#B7B7B1" />
    <path
        d="M161 312h33v10h-2l-.5-1.875c-2.402-3.403-5.502-3.351-9.5-4.125v-1h9l1 2 1-4c-3.396.14-6.792.288-10.188.438l-2.908.119-2.822.127-2.587.11c-3.375.278-6.45.684-9.495 2.206-2.125-.938-2.125-.938-4-2v-2Z"
        fill="#BBBDB5" />
    <path
        d="m247 400 3 1h-2l-1 27c7.162.22 7.162.22 13-2l2.313-1.125L264 424c-.75 4.75-.75 4.75-3 7v-2l-2 1c-2.207.07-4.417.084-6.625.063l-3.602-.028L246 430c-.025-4.112-.043-8.223-.055-12.335-.005-1.4-.012-2.8-.02-4.2a1697.68 1697.68 0 0 1-.023-6.024l-.016-3.665C246 401 246 401 247 400Z"
        fill="#E2E3DB" />
    <path d="M155 390h24v1l-11 1-1 37h-1v-38l-4 1-1 2-6-2v-2Z" fill="#8D8E83" />
    <path d="M263 368c5.802-.363 9.64.743 15 3v3c-3.194 1.597-6.525 1.372-10 1-3-1.25-3-1.25-5-3v-4Z" fill="#747668" />
    <path
        d="m314 346 2.875 2c4.604 2.624 8.946 2.734 14.125 2 3.42-1.29 3.42-1.29 6-3l2-1c-.896 2.24-1.582 3.699-3.563 5.125-3.532 1.268-6.987 1.085-10.687 1l-2.258-.027c-1.83-.024-3.661-.06-5.492-.098l-1 2 15 1v1c-2.208.082-4.416.14-6.625.188l-3.727.105c-3.912-.314-6.289-1.324-9.648-3.293l2-1c.658-3.03.658-3.03 1-6Z"
        fill="#BFC0B9" />
    <path
        d="M419 398h13c-1 3-1 3-3 4-1.397 5.77-1.299 11.807-1.43 17.719-.083 2.1-.316 4.194-.57 6.281l-3 2c.16-.554.318-1.108.482-1.68.564-2.526.711-4.866.8-7.453l.113-2.941.21-6.125.114-2.934.092-2.684C426 402 426 402 427 400l-3 1c-.733 2.015-.733 2.015-1 4l-1-3-3-2v-2Z"
        fill="#BABBB4" />
    <path
        d="M301 313h15l-4 2c-3.91 4.547-3.768 10.088-4.188 15.813l-.248 2.966c-.2 2.407-.387 4.813-.564 7.221h-1l-.028-2.247c-.054-3.356-.138-6.71-.222-10.065l-.043-3.538-.098-3.388-.063-3.127c-.356-3.182-.356-3.182-4.546-5.635Z"
        fill="#727567" />
    <path
        d="M302 391c3.644-.28 6.177-.443 9.438 1.313 2.508 4.314 1.865 8.813 1.562 13.687l-2-2-2 1-.375-3.188c-.546-3.328-1.024-5.863-2.625-8.812-2.017-1.344-2.017-1.344-4-2Z"
        fill="#717364" />
    <path d="M153 325c2 2 2 2 2.195 4.602l-.07 3.023-.055 3.04L155 338l-6 2 1-13h3v-2Z" fill="#757768" />
    <path
        d="M483 315h2l1 35 7 3v1h-12l2-4c.168-2.719.233-5.331.195-8.047l-.008-2.337c-.011-2.455-.037-4.91-.062-7.366-.01-1.668-.02-3.336-.027-5.004-.022-4.082-.057-8.164-.098-12.246Z"
        fill="#6D6E5C" />
    <path
        d="M244 404h1c.087 3.417.14 6.833.188 10.25l.076 2.934.029 2.832.048 2.602c-.41 2.865-1.455 4.233-3.341 6.382a1632.75 1632.75 0 0 1-.125-11.375c-.017-1.08-.034-2.16-.05-3.273l-.02-3.125-.032-2.889C242 406 242 406 244 404Z"
        fill="#74766A" />
    <path d="M530 343c5 1 5 1 6.258 2.777l.867 2.16c1.362 3.322 1.712 3.954 4.875 6.063h-11l-1-11Z" fill="#74766B" />
    <path
        d="m401 422 2.625 2.438c4.394 3.66 8.81 3.726 14.375 3.562l-1 2c-1.437.027-2.875.046-4.313.063l-2.425.035C408 430 408 430 405 429v2l12 1v1c-1.895.082-3.791.14-5.688.188l-3.199.105c-3.467-.326-5.297-1.303-8.113-3.293l3-3-2-1v-4Z"
        fill="#D8DAD3" />
    <path d="M349 399h9v6l-2 1c-.468 2.586-.468 2.586-.625 5.563l-.227 3.066L355 417h-1l-2-16-3-1v-1Z" fill="#9C9E94" />
    <path
        d="m148 343 2 2c-.536 3.536-.536 3.536-2 5-1.666.04-3.334.043-5 0v2c-4.41 2.21-8.49 2.237-13.313 2.125l-2.244-.027c-1.814-.024-3.629-.06-5.443-.098v-1l2.852-.113 3.773-.2 3.727-.175c5.396-.757 9.31-2.722 13.023-6.7L148 343Z"
        fill="#7F8176" />
    <path
        d="m226 334 1 2 1.875.875c2.573 1.362 3.708 2.588 5.125 5.125-.313 2.25-.313 2.25-1 4l3 1-3 1c-6.67-5.886-6.67-5.886-8-10.375 0-2.625 0-2.625 1-3.625Z"
        fill="#76786A" />
    <path
        d="m226 335-1 2 2 1-1 2-2.063-.438c-3.3-.631-6.608-1.105-9.937-1.562v7h-1v-10c1.79-.195 3.583-.38 5.375-.563l3.023-.316C224 334 224 334 226 335Z"
        fill="#B2B2AC" />
    <path d="M137 312c5.94 1.003 10.202 2.31 15 6l-1 2-1.875-1c-2.035-1.142-2.035-1.142-4.125-1v-3h-4v2l-20-3v-1h16v-1Z"
        fill="#C1C2BC" />
    <path d="M194 394c-2 1-2 1-5.125.063L186 393v2l-18-3v-1c19.021-2.35 19.021-2.35 26 3Z" fill="#B4B6AD" />
    <path d="M86 313c5.003.476 8.03 1.933 12 5l2 3-4 3-2.188-2.688c-2.452-2.95-5.061-5.64-7.812-8.312Z"
        fill="#77796D" />
    <path
        d="M527 321c2.31 3.466 3.716 7.07 5.188 10.938l.865 2.17c1.43 3.754 2.189 6.06.947 9.892h-5l1.25-3.313c1.306-5.017-.308-8.542-2.305-13.171C527 325 527 325 527 321Z"
        fill="#A5A79A" />
    <path
        d="M518 318h3c.672 1.936 1.338 3.874 2 5.813l1.125 3.269C525 330 525 330 525 333h-11c.256-2.343.593-4.678 1-7l2-1-1 6h7l-1.5-3.313C520 324 520 324 520 321h-2v-3Z"
        fill="#DEDDD6" />
    <path d="M412 385h4c-.151 2.647-.5 4.443-2.297 6.445C409.6 395 409.6 395 406 395c1.367-3.986 3.051-6.964 6-10Z"
        fill="#A9A9A3" />
    <path
        d="m140 314 5 1v3l3-1 5 5-1 2h-3l-1 2-.988-1.645-1.325-2.168-1.3-2.144c-1.312-1.932-2.724-3.419-4.387-5.043v-1Z"
        fill="#78796E" />
    <path d="M353 418h1v12h5v-10h1v9l4 1v2h-15v-2l3-2c.582-2.425.582-2.425.688-5.125l.199-2.758L353 418Z"
        fill="#D0D2C5" />
    <path d="M506 340c1.218 3.97.485 6.121-1 10l-1 3h10v2h-17v-2l2.25-1c4.162-3.027 5.15-7.236 6.75-12Z"
        fill="#BCBDB6" />
    <path d="m435 319 2 1-1 2 1 3-1 3h-2l-.375 2.75c-.546 2.84-1.198 4.776-2.625 7.25h-1c-.396-7.39.872-12.808 5-19Z"
        fill="#737567" />
    <path
        d="M459 312v1l-11 1v2l-5.273 2.93c-1.888 1.079-1.888 1.079-3.727 3.07v-4h2c-.833-2.167-.833-2.167-3-3 7.076-3.002 13.37-3.349 21-3Z"
        fill="#BABBB5" />
    <path d="m187 425 1 3 3 1c-4.622 2.219-7.768 3.383-13 3v-1l-10-1v-1l2.633-.113c8.647-.411 8.647-.411 16.367-3.887Z"
        fill="#C5C6C0" />
    <path d="m97 341 3 1 3-1c-1.988 6.88-1.988 6.88-5 9-2.688.688-2.688.688-5 1 .706-3.669 2.277-6.705 4-10Z"
        fill="#7C7E74" />
    <path
        d="m92 348 1 3 4-1c-2.834 3.254-4.686 4.52-9 5l2-2-1.938.5c-4.038.66-7.98.58-12.062.5l-1-2 2.938.188c4.65.019 8.797-1.422 13.062-3.188l1-1Z"
        fill="#E7E8E0" />
    <path d="M323 400h4v12h-4v-12Z" fill="#828477" />
    <path d="M230 319h5v11h-2l-1-3-2 3v-11Z" fill="#757766" />
    <path
        d="M58 341h3l1 4 1.625.188c3.487 1.192 5.624 3.374 8.375 5.812-2.583.957-3.865 1.036-6.563.313-2.71-1.46-3.908-2.658-5.437-5.313v-3h-2v-2Z"
        fill="#737568" />
    <path d="m508 339 2 3a101.168 101.168 0 0 1-2 6v4l5 1v1h-10c1.214-5.322 2.726-10.04 5-15Z" fill="#7A7B73" />
    <path d="m370 413 3 1-2 3 5 6-4 1-1-3c-1.936-.672-1.936-.672-4-1l-2-1c1.135-3.404 1.968-4.217 5-6Z"
        fill="#7E8072" />
    <path
        d="m206 400 5 1v28l-7 3v-2l5-2c.087-4.104.14-8.208.188-12.313l.076-3.537.029-3.388.048-3.127c-.112-2.689-.112-2.689-1.86-4.495L206 400Z"
        fill="#DCDDD8" />
    <path
        d="M152 320c2.248 2.052 3.002 3.007 4 6 .069 2.061.085 4.125.063 6.188l-.028 3.292L156 338h-1l-1-11h-4v9h-1a354.96 354.96 0 0 1-.188-5.875l-.105-3.305L149 324l3-2v-2Z"
        fill="#A2A294" />
    <path
        d="m347 314 3 1-1.438 1.063c-3.822 4.739-2.867 13.512-3.125 19.375l-.13 2.794c-.106 2.256-.208 4.512-.307 6.768h-1c-.074-3.933-.129-7.865-.165-11.798-.022-1.995-.06-3.99-.099-5.985l-.029-3.799-.048-3.507C344 317 344 317 345.52 315.099L347 314Z"
        fill="#B6B8AD" />
    <path
        d="m490 314 4 1-3 2c-.507 2.121-.507 2.121-.512 4.57l-.107 2.715-.068 2.84-.104 2.863A646.386 646.386 0 0 0 490 337c-2.182-3.948-2.268-6.971-2.25-11.5l-.016-3.969c.24-3.183.57-4.892 2.266-7.531Z"
        fill="#AEAEA5" />
    <path
        d="M370.5 398.625c3.094 1.702 4.117 3.147 5.5 6.375-.313 2.313-.313 2.313-1 4v-3h-2v5h-1l-.688-3.75c-1.013-4.17-2.632-5.926-6.312-8.25 3-1 3-1 5.5-.375Z"
        fill="#7C7E73" />
    <path d="m213 346 .688 1.813c1.645 2.742 3.582 3.607 6.312 5.187v2h-20v-2h14l-1-1c-.04-2-.043-4 0-6Z"
        fill="#B5B5AD" />
    <path
        d="M393 329h1c1.125 7.625 1.125 7.625 0 11l3-1c-.523 2.763-1.109 5.326-2 8h-3c-1.125-4.75-1.125-4.75 0-7 .228-1.87.41-3.747.563-5.625l.253-3.04L393 329Z"
        fill="#7D7F74" />
    <path d="M354 418h1l1 8h1l1-8h1l1 13h-8l2-1v-12Z" fill="#8A8D7D" />
    <path d="m375 403 2 1c.37 6.4.37 6.4-1.5 9.438L374 415c-2-1-2-1-3-2-.141-2.67-.042-5.324 0-8l4 1v-3Z"
        fill="#9C9D93" />
    <path d="M242 351c4.084.743 8.02 1.83 12 3v2c-1.792.027-3.583.046-5.375.063l-3.023.035C243 356 243 356 241 355l1-4Z"
        fill="#95968F" />
    <path
        d="M551 316h4c1.022 3.319 1.044 6.183.879 9.64l-.147 3.243-.17 3.367-.158 3.414c-.13 2.779-.264 5.558-.404 8.336h-1l-.06-2.048c-.095-3.068-.205-6.135-.315-9.202l-.094-3.223-.117-3.105-.095-2.857c-.326-2.621-1.03-4.285-2.319-6.565v-1Z"
        fill="#797B65" />
    <path
        d="M204 311a1182.5 1182.5 0 0 1 9.063-.125l2.568-.05c5.203-.041 9.444.478 14.369 2.175-3.526 1.144-6.517.95-10.188.625l-3.46-.3A573.409 573.409 0 0 1 204 312v-1Z"
        fill="#C2C4BB" />
    <path d="m71 314-5 6-1-2h-2l-.25 1.875C62 322 62 322 59.937 323.25L58 324c1.772-6.204 6.21-10.999 13-10Z"
        fill="#9C9D92" />
    <path d="m46 309 2 1v7l-2-1-4 6c-1.642-3.283-.519-6.425 0-10l3-1 1-2Z" fill="#757763" />
    <path d="m379 426 3.25 1.938c2.558 1.468 4.803 2.59 7.75 3.062v2c-7.385.492-7.385.492-10.5-2l-1.5-2 1-3Z"
        fill="#95978A" />
    <path
        d="M398 323c3.12 4.68 2.594 9.518 2 15-1.05 3-2.322 5.273-4 8-1.265-2.53-.725-3.342 0-6v-3l2-2c.243-2.899.243-2.899.125-6.125l-.055-3.32L398 323Z"
        fill="#B3B5A3" />
    <path
        d="M171 316h2a376.79 376.79 0 0 1-.313 5.875l-.175 3.305c-.17.93-.338 1.861-.512 2.82l-3 2a531.951 531.951 0 0 1-.125-5.875l-.07-3.305C169 318 169 318 171 316Z"
        fill="#757765" />
    <path d="M193 398h2c1.905 5.103 3.426 9.463 3 15h-2v-7h-2c-.73-1.977-1.394-3.98-2-6l1-2Z" fill="#797B6C" />
    <path d="M382 312c5.75.75 5.75.75 8 3h-4l1 4-1.723-.621c-4.785-1.67-9.236-2.843-14.277-3.379v-1h13l-2-2Z"
        fill="#D6D7D2" />
    <path d="M545 312h20v2l-6 2-1 6h-1c-.042-2.333-.04-4.667 0-7l1-1-13-1v-1Z" fill="#C3C4BF" />
    <path
        d="M22 302c3.064-.135 6.122-.234 9.188-.313l2.619-.126c6.339-.122 6.339-.122 8.922 1.574C44.113 304.52 44.113 304.52 46 307l-4 2v-4c-6.633-1.08-13.3-1.526-20-2v-1Z"
        fill="#87897F" />
    <path
        d="M262 424h2c-.75 4.75-.75 4.75-3 7v-2l-2 1c-2.207.07-4.417.084-6.625.063l-3.602-.028L246 430v-1l2.738-.332 3.575-.48 3.55-.458c3.214-.748 4.082-1.302 6.137-3.73Z"
        fill="#CFD0C6" />
    <path
        d="M196 420c-.365 2.702-.699 4.584-2.313 6.813C192 428 192 428 188 428c0-3 0-3 2.313-5.688C193 420 193 420 196 420Z"
        fill="#7F8176" />
    <path d="M514 322h2c-.875 7.625-.875 7.625-2 11h11v1h-12c-1.117-4.69-.806-7.538 1-12Z" fill="#808076" />
    <path
        d="M194 345h2v7c-2.297 1.148-3.583 1.116-6.133 1.098l-2.441-.01-2.551-.026-2.574-.013c-2.1-.012-4.2-.03-6.301-.049v-1l16-1 2-6Z"
        fill="#929488" />
    <path d="M342 318h1l1 27h-2l-1 2 1-29Z" fill="#787A70" />
    <path d="m307 345 1.813.5c2.3.611 2.3.611 5.187.5l1 3-2 3c-1.875-.125-1.875-.125-4-1-1.25-3.063-1.25-3.063-2-6Z"
        fill="#818375" />
    <path d="M48 310c2.495 3.742 2.376 5.562 2 10-1.5 3.438-1.5 3.438-3 6-1.607-3.215-1.057-6.436-1-10h1l1-6Z"
        fill="#A4A59C" />
    <path d="m423 399 4 1-1 21h-1v-15l-2-1v-6Z" fill="#6E7065" />
    <path
        d="M63 340h2c1.113 1.61 1.113 1.61 2.313 3.75 2.115 3.55 4.237 5.884 7.687 8.25-4.922-.434-7.455-2.691-11-6l-2-3 1-3Z"
        fill="#BEC0B7" />
    <path d="M14 350c5.75.875 5.75.875 8 2v-2l8 2v1H12l2-1v-2Z" fill="#A1A398" />
    <path d="M340 345h4c-1.173 3.337-2.189 5.774-5 8h-2l-1-3c1.688-2.688 1.688-2.688 4-5Z" fill="#98998E" />
    <path
        d="m370 409 1 4-2.438 1.875c-2.6 1.867-2.6 1.867-3.562 4.125l-6-1v-2l1.898-.516 2.477-.734 2.46-.703c2.623-1.268 3.159-2.371 4.165-5.047Z"
        fill="#D5D6D1" />
    <path d="m263 368 1 2c3.439 2.248 6.988 2.49 11 3l3 1c-3.194 1.597-6.525 1.372-10 1-3-1.25-3-1.25-5-3v-4Z"
        fill="#A9ACA3" />
    <path
        d="M388 352c-3.153 2.102-3.861 2.243-7.45 2.195l-2.568-.02-2.67-.05-2.705-.027A824.857 824.857 0 0 1 366 354v-1c1.355-.09 1.355-.09 2.738-.184l3.575-.253 3.55-.247c9.12-.92 9.12-.92 12.137-.316Z"
        fill="#969790" />
    <path
        d="M317 351c1.814.28 3.626.575 5.438.875l3.058.492L328 353l1 2c-1.604.027-3.208.046-4.813.063l-2.707.035C319 355 319 355 316 354l1-3Z"
        fill="#6E7063" />
    <path d="M433 320c0 3 0 3-.938 6.063-1.38 4.562-1.7 9.203-2.062 13.937h-1c-.556-13.88-.556-13.88 3-19l1-1Z"
        fill="#B6B7B0" />
    <path d="M463 314h7v8a90.488 90.488 0 0 1-4-4v-2l-3-1v-1Z" fill="#76776E" />
    <path d="M335 312h16l-1 2h-9v2l-5-1-1-3Z" fill="#B5B6AF" />
    <path d="M264 12h22v4l-3-1v-2h-19v-1Z" fill="#8E2B23" />
    <path d="M227 409h2v8l-13-2v-1l10-1 1-4Z" fill="#878981" />
    <path
        d="M313 397c2 2 2 2 2.375 4.75-.46 3.989-1.969 6.092-4.375 9.25-.625-1.813-.625-1.813-1-4l2-3c.394-2.324.735-4.658 1-7Z"
        fill="#9EA293" />
    <path
        d="M473 344c-.615 5.538-.615 5.538-2.563 7.875L469 353l2-6-5 4-2-1a242.9 242.9 0 0 1 2.813-3l1.582-1.688C470 344 470 344 473 344Z"
        fill="#CCCEC6" />
    <path d="M189 326h2v14l-3-1v-3h2v-6h-2l1-4Z" fill="#ADAEAA" />
    <path d="M417 338h1l1 14 3 1h-6l1-15Z" fill="#CACBC2" />
    <path d="m35 303 7 1 1 3-1 2c-3.367-1.393-4.986-2.979-7-6Z" fill="#76776A" />
    <path d="m405 429 13 1-1 2c-1.625.027-3.25.046-4.875.063l-2.742.035C407 432 407 432 405 431v-2Z" fill="#707365" />
    <path
        d="M405 428v3l12 1v1c-1.895.082-3.791.14-5.688.188l-3.199.105c-3.467-.326-5.297-1.303-8.113-3.293 3-2 3-2 5-2Z"
        fill="#AEAFA7" />
    <path d="M396 403h2c1.297 4.61.711 8.338 0 13h-2v-13Z" fill="#737467" />
    <path d="M419 398h13l-1 2-8-1 1 6a141.4 141.4 0 0 1-5-5v-2Z" fill="#CCCDC8" />
    <path d="M483 350c3.41.787 6.689 1.871 10 3v1h-12l2-4Z" fill="#76786C" />
    <path
        d="M518 318h3a646.822 646.822 0 0 1 1.5 4.75l.844 2.672C524 328 524 328 524 332l-3-1h2l-1.5-3.313C520 324 520 324 520 321h-2v-3Z"
        fill="#D2D3C7" />
    <path d="M386 315c2.875-.188 2.875-.188 6 0l2 3-6 2-2-2v-3Z" fill="#919289" />
    <path d="m407 352 1.61.496c2.929.618 5.648.599 8.64.567l3.266-.028L423 353v2h-17l1-3Z" fill="#ACAEA3" />
    <path d="M302 391c3.375-.188 3.375-.188 7 0l2 3h-2l-1 3-.75-1.875c-1.456-2.476-2.628-3.076-5.25-4.125Z"
        fill="#898B83" />
    <path
        d="M579 344c.625 1.875.625 1.875 1 4l-2 2h-2l-2 2c-3.125.125-3.125.125-6 0v-1l2.688-.688c3.746-1.484 5.65-3.336 8.312-6.312Z"
        fill="#C2C2C0" />
    <path d="m528 333 3 1c1.208 3.623.543 4.641-1 8l-2-1c-1.275-5.45-1.275-5.45 0-8Z" fill="#757864" />
    <path
        d="m453.188 311.938 3.292.027L459 312v1l-1.723.148c-4.988.483-9.503 1.328-14.277 2.852l1-3c3.285-1.095 5.737-1.1 9.188-1.063Z"
        fill="#7B7C77" />
    <path d="M155 390h9l-3 4-6-2v-2Z" fill="#A9A9A6" />
    <path
        d="M329 399h14v6c-.378-.645-.755-1.29-1.145-1.953-1.716-2.287-1.716-2.287-4.554-2.656l-2.988-.141-3.012-.172L329 400v-1Z"
        fill="#797A72" />
    <path d="M237 398h16l-1 2-12-1v2l-3-1v-2Z" fill="#D0D1CD" />
    <path d="M264 366c4.869.596 9.328 1.57 14 3v1c-5.066.253-9.158-.664-14-2v-2Z" fill="#BDBEB8" />
    <path d="m471 347-2 6h-5v-2c4.47-4 4.47-4 7-4Z" fill="#77786F" />
    <path
        d="M490 314c2.063.438 2.063.438 4 1l-3 2c-.586 3.116-.586 3.116-.688 6.625l-.199 3.602L490 330h-1c-.027-2.48-.047-4.958-.063-7.438l-.025-2.142c-.009-1.807.036-3.614.088-5.42l1-1Z"
        fill="#E2E3DD" />
    <path d="M365 419c6.75 1.75 6.75 1.75 9 4l-2 3a858.147 858.147 0 0 1-3.5-2.938l-1.969-1.652L365 420v-1Z"
        fill="#B3B5AC" />
    <path d="M323 400h4v9l-3-2c-.688-3.625-.688-3.625-1-7Z" fill="#6E715F" />
    <path d="m64 351 11 1 1 3c-1.814-.28-3.626-.575-5.438-.875l-3.058-.492L65 353l-1-2Z" fill="#8D8E85" />
    <path d="m92 348 1 3 4-1c-2.834 3.254-4.686 4.52-9 5a56.54 56.54 0 0 1 4-7Z" fill="#BDBFB6" />
    <path d="m553 348 3 1c.688 2.063.688 2.063 1 4h-7l1-2h2v-3Z" fill="#797B6A" />
    <path d="M99 332c1.884 3.265 2.493 6.281 3 10l-3 1c-1.054-3.982-.841-6.982 0-11Z" fill="#707363" />
    <path d="m309 394 4 1v5l-2 1c-1.46-2.647-2-3.894-2-7Z" fill="#7D7F72" />
    <path d="M282 361h4v5h-4v-5Z" fill="#7E8075" />
    <path d="M112 313h8l-1 4h-4c-1.75-2-1.75-2-3-4Z" fill="#77796A" />
    <path d="M244 82c2 2 2 2 2.125 5.125L246 90h-3c-.625-2.875-.625-2.875-1-6l2-2Z" fill="#B61F1B" />
    <path d="m281 364 1 2h3l-2 4-1-2-4 1 3-5Z" fill="#ACADA3" />
    <path d="M516 312h1c.25 3.25.25 3.25 0 7l-4 4 3-11Z" fill="#CDCEC6" />
    <path d="M89 317c3.712 1.856 5.018 2.557 7 6l-1 3-6-9Z" fill="#E1E1DC" />
    <path d="M38 302c3.242.35 4.615.562 6.813 3.063L46 307l-4 2v-4c-1.92-1.774-1.92-1.774-4-3Z" fill="#B0B0A9" />
    <path d="M262 424h2c-.75 4.75-.75 4.75-3 7-.625-2.375-.625-2.375-1-5l2-2Z" fill="#B1B3AB" />
    <path d="M370 418c3.161 1.37 3.993 1.99 6 5l-4 1-1-3-2-2 1-1Z" fill="#78796E" />
    <path d="m436 343 3 1c-.313 1.938-.313 1.938-1 4l-3 1 1-6Z" fill="#76786B" />
    <path d="m102 341 1 2-4 6-2-3h3l-1-3 3-2Z" fill="#A4A59E" />
    <path d="M296 302v2l-7 2-1-3c2.709-1.354 5.01-1.065 8-1Z" fill="#848580" />
</svg>