<svg xmlns="http://www.w3.org/2000/svg" width="1742" height="1134">
    <path
        d="M58 60h169v363h43V60h169v363h44V60h168v181h44V60h342v140H863v41h218V60h168v181h44V60c84.086-.161 84.086-.161 119.207-.195l24.116-.025 3.053-.003c16.255-.017 32.511-.049 48.767-.086 16.688-.037 33.376-.06 50.064-.067 10.294-.006 20.587-.023 30.881-.056 7.063-.02 14.126-.027 21.19-.022 4.072.003 8.144-.001 12.216-.023 3.735-.02 7.47-.02 11.204-.007 1.978.003 3.955-.014 5.933-.032 14.704.097 26.826 5.22 37.619 15.203 11.894 12.628 14.206 26.342 14.154 42.923l.02 4.99c.019 4.495.018 8.989.012 13.483-.003 3.764.003 7.529.009 11.293.014 8.89.012 17.779.001 26.668-.011 9.14.003 18.28.03 27.42.022 7.873.028 15.747.022 23.62-.003 4.692 0 9.382.017 14.073.015 4.416.011 8.832-.008 13.248-.003 1.61 0 3.22.01 4.83.097 16.012-2.65 30.066-13.806 42.269-5.621 5.416-11.434 8.743-18.711 11.496 2.832 1.978 2.832 1.978 5.383 3.191 12.495 6.248 19.589 14.883 24.617 27.809 2.608 8.812 2.293 17.681 2.287 26.782l.02 5.404c.016 3.866.024 7.732.029 11.599.006 6.125.028 12.25.052 18.375.049 13.009.081 26.018.112 39.027.033 14.03.07 28.06.124 42.09.023 6.077.037 12.154.044 18.231.006 3.796.02 7.593.036 11.389.006 1.747.008 3.494.007 5.24-.73 19.956-.73 19.956 6.289 37.863 1.927 1.61 3.803 2.752 6 4v1c-20.054.094-40.108.164-60.162.207-9.312.02-18.624.049-27.936.095-8.118.04-16.237.065-24.355.074-4.297.006-8.593.018-12.89.047-4.05.027-8.098.035-12.147.03-1.481 0-2.963.008-4.444.024-11.657.115-19.668-1.503-28.277-9.563-8.941-9.566-9.084-20.446-9.044-32.967l-.011-4.202c-.008-2.999-.01-5.997-.008-8.996.002-4.745-.012-9.49-.03-14.235a13511.67 13511.67 0 0 1-.077-40.46c-.004-7.461-.022-14.922-.055-22.384-.02-4.714-.023-9.428-.012-14.142.003-2.933-.011-5.866-.03-8.799-.008-2.002.004-4.005.017-6.007.017-8.715.017-8.715-4.539-15.722-11.206-6.724-25.937-3.616-39-4v181h-168V382h-44v181h-168V382H863v41h174v140H695V382h-44l.048 14.07c.05 15.347.083 30.693.107 46.04.016 9.304.037 18.608.071 27.912.03 8.113.05 16.225.056 24.337.004 4.293.013 8.586.035 12.878.02 4.047.027 8.093.022 12.14.001 1.48.007 2.958.019 4.438.085 11.511-.703 21.073-8.256 30.138-5.75 5.6-12.394 9.162-20.455 9.181l-2.634.014h-2.88l-3.07.01c-3.405.011-6.81.015-10.216.019l-7.312.02c-7.323.02-14.645.03-21.967.039l-10.351.015a40446.3 40446.3 0 0 1-43.354.044l-2.241.002a17795.9 17795.9 0 0 0-35.937.066c-12.306.033-24.612.05-36.918.054-6.906.002-13.812.01-20.718.036-6.5.025-12.998.028-19.497.018-2.383 0-4.765.006-7.147.02-3.26.017-6.517.01-9.776-.003l-2.84.033c-7.952-.077-14.39-2.299-21.039-6.646-4.35-4.547-7.754-9.887-9.75-15.875l-.883 1.723c-4.795 9.033-9.58 15.08-19.117 19.277-2.85.843-5.39 1.127-8.356 1.134l-2.635.014h-2.882l-3.073.01c-3.407.011-6.815.015-10.223.019l-7.317.02c-7.327.02-14.653.03-21.98.039l-10.356.015a40480.91 40480.91 0 0 1-43.37.044l-2.242.002c-11.986.008-23.972.033-35.958.066-12.311.033-24.623.05-36.935.054-6.91.002-13.82.01-20.73.036-6.501.024-13.003.028-19.504.018-2.385 0-4.77.006-7.154.02-3.259.017-6.517.01-9.777-.003l-2.848.033c-9.22-.09-16.172-3.344-22.87-9.603-7.133-7.646-9.108-16.125-9.036-26.336l-.007-2.464c-.005-2.717.004-5.434.012-8.15a6053.215 6053.215 0 0 1 .008-22.138c.01-5.836.007-11.67.005-17.506-.001-10.108.005-20.215.017-30.323.016-14.614.021-29.228.024-43.842.004-23.71.017-47.421.036-71.132.018-23.032.033-46.065.041-69.097v-2.152a1030668.198 1030668.198 0 0 0 .025-64.976l.001-2.024c.019-44.592.052-89.185.084-133.778Zm1403 119v62h44v-62h-44Z"
        fill="#045DB5" />
    <path
        d="M182 814h89c6.935 21.962 6.935 21.962 9.955 32.425l.67 2.318.691 2.394 1.485 5.118c1.048 3.61 2.094 7.22 3.14 10.831a26354.482 26354.482 0 0 0 6.62 22.827l.845 2.914 2.55 8.789c5.205 17.947 10.428 35.89 15.66 53.83 1.146 3.926 2.29 7.853 3.435 11.78a38369.991 38369.991 0 0 0 5.304 18.189l.896 3.07c.55 1.848 1.14 3.685 1.749 5.515 3.585-11.333 7.168-22.666 10.75-34l.817-2.586a21649.184 21649.184 0 0 0 23.183-73.789c11.015-35.295 11.015-35.295 15.658-50.025l1.535-4.88a4971.2 4971.2 0 0 1 2.037-6.462l1.122-3.558C380 816 380 816 381 814h87v253h-55l-1-208-21 66-8.4 26.379a32802.143 32802.143 0 0 0-28.6 90.279c-2.664 8.448-5.332 16.895-8 25.342h-47c-13.828-44.188-27.623-88.385-41.309-132.617C249.807 908.918 241.901 883.46 234 858l-1 209h-51V814ZM950.434 903.59c21.843 20.514 26.659 49.096 27.635 77.644-.09 3.605-.622 7.188-1.069 10.766H859c1.739 21.602 1.739 21.602 13 39 8.47 6.084 19.04 7.76 29.25 6.5 7.278-1.51 13.024-4.942 17.625-10.813 2.69-4.384 2.69-4.384 5.125-12.687h49c-2.682 18.777-7.66 32.919-22.457 45.195-21.464 15.233-51.227 17.66-76.623 14.035-13.41-2.33-25.916-7.158-36.92-15.23l-1.91-1.355c-16.541-12.849-23.45-34.436-26.072-54.363-3.345-28.505-.609-61.545 16.982-85.282 15.245-18.763 34.504-30.033 58.64-32.758 24.3-1.752 47 3.334 65.794 19.348Zm-80.903 27.328C863.378 939.284 861 948.788 861 959h62c0-11.383-.79-21.346-8.29-30.348-7.053-6.812-13.997-7.993-23.495-8.037-8.887.186-15.662 3.784-21.684 10.303ZM710.664 884.84c17.098-.53 33.284 3.847 46.336 15.16 17.562 18.01 16.45 41.406 16.304 64.873-.019 3.6-.02 7.202-.024 10.802-.01 6.793-.034 13.585-.064 20.377a9603.13 9603.13 0 0 0-.065 23.232c-.031 15.905-.086 31.81-.151 47.716h-53l-.148-25.496c-.04-6.016-.081-12.031-.124-18.047-.056-7.787-.108-15.575-.15-23.363a8576.42 8576.42 0 0 0-.136-20.483c-.019-2.602-.034-5.204-.045-7.806-.017-3.65-.046-7.3-.078-10.951l-.007-3.246C719.2 947.365 717.97 938.886 711 931c-7.999-6.46-15.943-6.762-26-6-7.89 1.79-14.712 6.205-19.313 12.914-4.523 8.35-4.986 17.265-5.006 26.573l-.03 3.373c-.031 3.652-.048 7.304-.065 10.956-.019 2.543-.038 5.087-.059 7.63-.046 5.992-.083 11.984-.116 17.976-.043 7.498-.098 14.996-.153 22.494-.099 13.361-.177 26.723-.258 40.084h-53l-1-178h50c1.125 7.875 1.125 7.875 1.316 11.402l.127 2.256.12 2.28.13 2.36c.105 1.901.207 3.802.307 5.702l1.215-1.688c10.705-14.37 24.374-22.619 42.043-25.707 3.13-.42 6.255-.576 9.406-.765ZM1271.77 900.21c14.134 12.46 18.767 26.323 20.23 44.79.13 3.129.154 6.252.158 9.383l.015 2.666c.01 1.895.02 3.789.026 5.683.012 3.024.032 6.047.053 9.07.061 8.592.116 17.184.15 25.776-.169 31.888-.169 31.888 3.333 63.525.265 1.897.265 1.897.265 5.897h-48l-2-21-2.875 3.438c-11.399 12.88-24.627 21.364-42.125 22.562-19.348.869-38.005-1.787-52.688-15.188-10.859-11.487-13.929-26.436-13.785-41.709.524-16.526 7.45-29.8 19.473-41.103 24.741-19.92 57.46-21.442 88-21-1.04-15.98-1.04-15.98-8.313-29.875-5.864-4.637-12.24-6.46-19.687-6.125-6.676 1.37-11.821 3.665-15.922 9.215-3.115 5.158-3.319 9.71-4.078 15.785h-52c1.284-16.697 3.874-28.268 15.938-40.125 28.377-23.76 84.91-24.753 113.832-1.664ZM1191 997c-4.689 6.495-6.244 13.113-5 21 2.474 8.488 7.456 13.506 15 18 7.755 2.455 15.357 1.364 22.71-1.734 8.408-4.649 13.501-12.666 16.165-21.766 2.18-9.425 2.276-18.87 2.125-28.5-18.435-.5-36.42-.068-51 13ZM1550 901c11.377 10.251 15.514 23.139 17 38h-49l-2-9c-2.761-5.628-6.326-7.839-12-10-8.201-2.526-16.809-1.447-24.645 1.719-4.085 2.222-6.277 5.124-8.355 9.281-.254 5.072-.322 9.356 2 14 2.33 1.1 2.33 1.1 5 2l2.323.973c5.818 2.411 11.619 4.239 17.716 5.797l5.7 1.505c2.933.769 5.868 1.533 8.804 2.29 16.197 4.19 32.288 8.611 45.457 19.435l1.95 1.574c8.367 7.496 12.484 18.455 13.265 29.45.437 14.72-3.86 28.207-13.652 39.351-17.306 18.055-39.55 24.91-64.239 25.75-23.016.483-45.824-3.564-63.178-19.82-7.706-7.582-12.167-16.676-14.146-27.305v-11h49l3 10c3.552 6.393 7.911 10.06 14.773 12.398 8.357 2.258 17.396 2.3 25.372-1.39 1.649-.951 3.256-1.975 4.855-3.008l3-1c1.15-2.247 1.15-2.247 2-5l1.188-2.875c1.207-4.645.678-8.299-1.373-12.625-7.363-10.143-25.894-12.608-37.253-15.563-43.151-11.327-43.151-11.327-55.84-29.796-6.828-12.06-6.7-25.66-3.687-38.68 3.774-13.536 12.992-23.408 24.965-30.461 29.638-16.028 74.558-17.225 102 4ZM1334 814h52v253h-52V814ZM1007 889h50c.438 12.25.438 12.25.568 16.095l.116 3.046.11 3.11c.179 2.385.534 4.462 1.206 6.749l1.137-1.977c8.22-14.04 17.69-21.53 33.441-25.707 8.37-1.816 15.505-1.316 24.422-1.316v48h-21c-9.891 1.448-18.908 3.357-25.84 11.04-7.617 10.54-8.279 22.95-8.365 35.519l-.03 2.753c-.032 2.97-.057 5.94-.081 8.91l-.063 6.217c-.055 5.43-.105 10.86-.153 16.29-.06 6.528-.126 13.056-.19 19.584-.098 9.896-.187 19.791-.278 29.687h-52l-.06-12.14c-.068-13.404-.145-26.807-.228-40.21-.05-8.106-.095-16.214-.134-24.32-.045-9.372-.098-18.744-.164-28.115l-.016-2.3c-.173-23.694-.883-47.258-2.398-70.915ZM511 890h53v177h-53V890ZM510 814h56v46h-56v-46Z"
        fill="#DB8918" />
</svg>