<?xml version="1.0" encoding="utf-8"?>
<!-- Generator: Adobe Illustrator 27.0.0, SVG Export Plug-In . SVG Version: 6.00 Build 0)  -->
<svg version="1.1" id="Layer_1" xmlns="http://www.w3.org/2000/svg" xmlns:xlink="http://www.w3.org/1999/xlink" x="0px" y="0px"
	 viewBox="0 0 841.89 595.28" style="enable-background:new 0 0 841.89 595.28;" xml:space="preserve">
<style type="text/css">
	.st0{fill:#0A195F;}
	.st1{fill:#4AC7F1;}
</style>
<g>
	<g>
		<polygon class="st0" points="343.6,298.31 342.65,298.31 320.15,253.46 303.07,253.46 303.07,306.96 312.75,306.96 312.75,262.11 
			313.77,262.11 336.27,306.96 353.42,306.96 353.42,253.46 343.6,253.46 		"/>
		<polygon class="st0" points="397.03,285.42 395.71,285.42 382.3,253.46 368.08,253.46 368.08,306.96 377.61,306.96 377.61,264.77 
			390.73,296.04 401.35,296.04 414.47,264.61 414.47,306.96 424.81,306.96 424.81,253.46 410.37,253.46 		"/>
		<polygon class="st0" points="451.85,262.62 467.31,262.62 467.31,306.96 477.72,306.96 477.72,262.62 493.18,262.62 
			493.18,253.46 451.85,253.46 		"/>
		<path class="st0" d="M525.39,268.61c-2.91-1.88-6.51-2.82-10.81-2.82c-3.27,0-6.16,0.58-8.65,1.72c-2.49,1.15-4.58,2.69-6.27,4.62
			c-1.69,1.93-2.96,4.13-3.81,6.6c-0.86,2.47-1.28,5.02-1.28,7.66v1.39c0,2.54,0.43,5.03,1.28,7.47c0.86,2.44,2.13,4.65,3.81,6.63
			c1.68,1.98,3.81,3.56,6.38,4.73c2.57,1.17,5.56,1.76,8.98,1.76c3.27,0,6.19-0.57,8.76-1.69s4.68-2.71,6.34-4.76
			c1.66-2.05,2.79-4.44,3.37-7.18h-9.38c-0.44,1.46-1.44,2.7-3,3.7s-3.59,1.5-6.08,1.5c-2.49,0-4.54-0.55-6.16-1.65
			c-1.61-1.1-2.81-2.61-3.59-4.54c-0.52-1.28-0.85-2.69-1.02-4.21h29.9v-3.67c0-3.52-0.73-6.8-2.2-9.85
			C530.49,272.96,528.3,270.49,525.39,268.61z M508.87,275.76c1.56-1.03,3.47-1.54,5.72-1.54c2.25,0,4.11,0.49,5.61,1.46
			c1.49,0.98,2.6,2.37,3.33,4.18c0.42,1.03,0.7,2.18,0.88,3.45h-19.98c0.2-1.13,0.5-2.17,0.89-3.12
			C506.12,278.26,507.3,276.78,508.87,275.76z"/>
		<polygon class="st0" points="539.65,253.46 539.65,261.08 544.63,261.08 544.63,306.96 554.82,306.96 554.82,261.08 
			554.82,253.46 544.63,253.46 		"/>
		<path class="st0" d="M596.12,268.61c-2.91-1.88-6.51-2.82-10.81-2.82c-3.27,0-6.16,0.58-8.65,1.72c-2.49,1.15-4.58,2.69-6.27,4.62
			c-1.69,1.93-2.96,4.13-3.81,6.6c-0.86,2.47-1.28,5.02-1.28,7.66v1.39c0,2.54,0.43,5.03,1.28,7.47c0.86,2.44,2.13,4.65,3.81,6.63
			c1.68,1.98,3.81,3.56,6.38,4.73c2.57,1.17,5.56,1.76,8.98,1.76c3.27,0,6.19-0.57,8.76-1.69c2.57-1.12,4.68-2.71,6.34-4.76
			c1.66-2.05,2.79-4.44,3.37-7.18h-9.38c-0.44,1.46-1.44,2.7-3,3.7c-1.56,1-3.59,1.5-6.08,1.5c-2.49,0-4.54-0.55-6.16-1.65
			c-1.61-1.1-2.81-2.61-3.59-4.54c-0.52-1.28-0.85-2.69-1.02-4.21h29.9v-3.67c0-3.52-0.73-6.8-2.2-9.85
			C601.21,272.96,599.02,270.49,596.12,268.61z M579.59,275.76c1.56-1.03,3.47-1.54,5.72-1.54c2.25,0,4.11,0.49,5.61,1.46
			c1.49,0.98,2.6,2.37,3.33,4.18c0.42,1.03,0.7,2.18,0.88,3.45h-19.98c0.2-1.13,0.5-2.17,0.89-3.12
			C576.84,278.26,578.02,276.78,579.59,275.76z"/>
		<path class="st0" d="M640.99,295.99c-0.76,1.12-1.77,2-3.04,2.64c-1.27,0.63-2.79,0.95-4.54,0.95c-2.35,0-4.26-0.54-5.75-1.61
			c-1.49-1.07-2.59-2.57-3.3-4.47c-0.71-1.9-1.06-4.03-1.06-6.38c0-2.44,0.37-4.61,1.1-6.49c0.73-1.88,1.84-3.36,3.33-4.43
			c1.49-1.08,3.36-1.61,5.61-1.61c2.59,0,4.63,0.69,6.12,2.05c1.49,1.37,2.36,3.08,2.6,5.13h9.89c-0.19-3.17-1.11-5.96-2.75-8.35
			c-1.64-2.39-3.82-4.26-6.56-5.61c-2.74-1.34-5.84-2.01-9.31-2.01c-3.32,0-6.24,0.58-8.76,1.72c-2.52,1.15-4.63,2.69-6.34,4.62
			c-1.71,1.93-2.99,4.13-3.85,6.6c-0.86,2.47-1.28,5.04-1.28,7.73v1.39c0,2.54,0.41,5.03,1.25,7.47c0.83,2.44,2.09,4.64,3.77,6.6
			c1.68,1.96,3.79,3.52,6.3,4.69c2.52,1.17,5.51,1.76,8.98,1.76c3.52,0,6.66-0.69,9.42-2.05c2.76-1.37,4.98-3.26,6.67-5.68
			c1.69-2.42,2.63-5.24,2.82-8.46h-9.89C642.23,293.59,641.75,294.86,640.99,295.99z"/>
		<path class="st0" d="M698.25,271.99c-1.88-1.93-4.17-3.45-6.85-4.54c-2.69-1.1-5.72-1.65-9.09-1.65c-3.37,0-6.4,0.55-9.09,1.65
			c-2.69,1.1-4.97,2.61-6.85,4.54c-1.88,1.93-3.32,4.13-4.32,6.6c-1,2.47-1.5,5.07-1.5,7.8v1.54c0,2.64,0.48,5.18,1.43,7.62
			c0.95,2.44,2.36,4.63,4.21,6.56c1.86,1.93,4.13,3.46,6.82,4.58s5.79,1.69,9.31,1.69c3.47,0,6.55-0.57,9.23-1.69
			c2.69-1.12,4.96-2.65,6.82-4.58c1.86-1.93,3.26-4.11,4.22-6.56c0.95-2.44,1.43-4.98,1.43-7.62v-1.54c0-2.73-0.49-5.34-1.46-7.8
			C701.57,276.11,700.14,273.92,698.25,271.99z M692.5,293.53c-0.88,1.88-2.17,3.37-3.88,4.47c-1.71,1.1-3.81,1.65-6.3,1.65
			c-2.49,0-4.59-0.55-6.3-1.65c-1.71-1.1-3.02-2.59-3.92-4.47c-0.9-1.88-1.36-4.02-1.36-6.41c0-2.44,0.46-4.61,1.39-6.49
			c0.93-1.88,2.26-3.37,4-4.47c1.73-1.1,3.8-1.65,6.19-1.65c2.39,0,4.46,0.55,6.19,1.65c1.73,1.1,3.05,2.59,3.96,4.47
			c0.9,1.88,1.36,4.04,1.36,6.49C693.82,289.51,693.38,291.65,692.5,293.53z"/>
		<path class="st0" d="M771.42,274.17c-1.05-2.71-2.6-4.76-4.65-6.16c-2.05-1.39-4.62-2.09-7.69-2.09h-0.44
			c-3.03,0-5.56,0.7-7.58,2.09c-2.03,1.39-3.57,3.45-4.62,6.16c-0.09,0.24-0.18,0.49-0.26,0.74c-0.08-0.25-0.16-0.5-0.25-0.74
			c-1-2.71-2.52-4.76-4.54-6.16c-2.03-1.39-4.58-2.09-7.66-2.09h-0.44c-3.03,0-5.56,0.7-7.59,2.09c-2.03,1.39-3.55,3.45-4.58,6.16
			c-0.32,0.85-0.59,1.77-0.81,2.74v-9.74h-8.06v39.79h10.19v-23.38c0-2.59,0.71-4.65,2.13-6.19c1.42-1.54,3.3-2.31,5.64-2.31
			s4.15,0.75,5.42,2.24c1.27,1.49,1.9,3.48,1.9,5.98v23.67h10.19v-23.38c0-2.59,0.71-4.65,2.13-6.19c1.42-1.54,3.3-2.31,5.64-2.31
			s4.15,0.75,5.42,2.24c1.27,1.49,1.91,3.48,1.91,5.98v23.67H773v-22.72C773,280.24,772.47,276.88,771.42,274.17z"/>
	</g>
	<g>
		<g>
			<polygon class="st1" points="156.48,235.8 122.91,235.8 104.2,266.72 137.41,266.72 156.56,297.64 175.27,266.72 			"/>
			<polygon class="st1" points="227.56,235.8 193.98,235.8 175.27,266.72 208.49,266.72 227.64,297.64 246.35,266.72 			"/>
		</g>
		<g>
			<polygon class="st1" points="121.18,359.47 87.61,359.47 68.89,328.55 102.11,328.55 121.26,297.64 139.97,328.55 			"/>
			<polygon class="st1" points="192.26,359.47 158.68,359.47 139.97,328.55 173.19,328.55 192.34,297.64 211.05,328.56 			"/>
		</g>
	</g>
	<g>
		<path class="st1" d="M303.2,341.06v-15.01h2.02v15.01H303.2z"/>
		<path class="st1" d="M309.33,341.06v-10.98h1.56v4.71h-0.25c0-1.08,0.15-2,0.44-2.75c0.3-0.75,0.74-1.32,1.35-1.71
			c0.6-0.39,1.36-0.59,2.28-0.59h0.08c1.39,0,2.41,0.43,3.07,1.3c0.67,0.86,1,2.11,1,3.74v6.27h-1.97v-6.68
			c0-0.85-0.24-1.53-0.72-2.05c-0.48-0.51-1.14-0.77-1.97-0.77c-0.86,0-1.56,0.27-2.1,0.8c-0.54,0.53-0.8,1.25-0.8,2.14v6.56H309.33
			z"/>
		<path class="st1" d="M322.49,341.06v-10.98h1.56v4.71h-0.25c0-1.08,0.15-2,0.44-2.75c0.3-0.75,0.74-1.32,1.35-1.71
			c0.6-0.39,1.36-0.59,2.28-0.59h0.08c1.39,0,2.41,0.43,3.07,1.3c0.67,0.86,1,2.11,1,3.74v6.27h-1.97v-6.68
			c0-0.85-0.24-1.53-0.72-2.05c-0.48-0.51-1.14-0.77-1.97-0.77c-0.86,0-1.56,0.27-2.1,0.8c-0.54,0.53-0.8,1.25-0.8,2.14v6.56H322.49
			z"/>
		<path class="st1" d="M340.71,341.43c-0.96,0-1.8-0.16-2.53-0.49c-0.73-0.33-1.34-0.76-1.84-1.31c-0.5-0.54-0.88-1.15-1.13-1.82
			c-0.25-0.67-0.38-1.36-0.38-2.06v-0.37c0-0.7,0.13-1.39,0.39-2.07c0.26-0.68,0.65-1.29,1.15-1.83c0.51-0.54,1.12-0.97,1.85-1.3
			c0.73-0.32,1.56-0.48,2.49-0.48c0.93,0,1.76,0.16,2.49,0.48c0.73,0.32,1.34,0.75,1.85,1.3c0.51,0.54,0.89,1.15,1.15,1.83
			c0.26,0.68,0.39,1.37,0.39,2.07v0.37c0,0.7-0.13,1.38-0.38,2.06c-0.25,0.67-0.63,1.28-1.13,1.82c-0.5,0.54-1.11,0.98-1.84,1.31
			C342.52,341.26,341.67,341.43,340.71,341.43z M340.71,339.66c0.82,0,1.52-0.18,2.11-0.54c0.58-0.36,1.03-0.85,1.34-1.47
			c0.31-0.62,0.46-1.31,0.46-2.08c0-0.78-0.16-1.48-0.47-2.1c-0.32-0.62-0.76-1.1-1.35-1.46c-0.58-0.36-1.28-0.53-2.09-0.53
			c-0.8,0-1.49,0.18-2.08,0.53c-0.59,0.36-1.04,0.84-1.36,1.46s-0.47,1.32-0.47,2.1c0,0.77,0.15,1.46,0.46,2.08
			c0.31,0.62,0.75,1.11,1.34,1.47C339.19,339.48,339.89,339.66,340.71,339.66z"/>
		<path class="st1" d="M351.7,341.06l-3.74-10.98h2.06l3.66,10.98H351.7z M352.19,341.06v-1.56h2.39v1.56H352.19z M353.14,341.06
			l3.19-10.98h1.93l-3.25,10.98H353.14z"/>
		<path class="st1" d="M363.81,341.35c-0.82,0-1.53-0.14-2.13-0.42c-0.6-0.28-1.06-0.69-1.38-1.22c-0.32-0.54-0.48-1.18-0.48-1.93
			c0-0.78,0.18-1.43,0.53-1.95c0.35-0.52,0.86-0.92,1.53-1.18c0.67-0.27,1.48-0.4,2.43-0.4h2.98v1.48h-3.06
			c-0.8,0-1.4,0.19-1.83,0.58c-0.43,0.38-0.64,0.88-0.64,1.48c0,0.6,0.21,1.09,0.64,1.46c0.43,0.37,1.03,0.56,1.83,0.56
			c0.47,0,0.91-0.09,1.34-0.26c0.43-0.17,0.78-0.46,1.06-0.86c0.28-0.4,0.43-0.96,0.46-1.68l0.53,0.78
			c-0.07,0.78-0.26,1.44-0.57,1.96c-0.31,0.53-0.73,0.93-1.27,1.2C365.23,341.21,364.57,341.35,363.81,341.35z M367.41,341.06v-3.29
			h-0.33v-3.8c0-0.75-0.2-1.32-0.59-1.71c-0.39-0.38-0.96-0.58-1.72-0.58c-0.43,0-0.86,0.01-1.32,0.02
			c-0.45,0.01-0.88,0.03-1.29,0.04c-0.41,0.01-0.77,0.04-1.07,0.06v-1.73c0.3-0.03,0.62-0.05,0.96-0.07
			c0.34-0.02,0.68-0.03,1.04-0.04c0.36-0.01,0.7-0.01,1.03-0.01c1.12,0,2.04,0.13,2.76,0.4c0.71,0.27,1.24,0.7,1.58,1.31
			c0.34,0.6,0.51,1.42,0.51,2.45v6.95H367.41z"/>
		<path class="st1" d="M377.3,341.43c-0.95,0-1.76-0.16-2.46-0.49c-0.69-0.33-1.26-0.77-1.72-1.33c-0.45-0.56-0.79-1.17-1.02-1.84
			c-0.23-0.67-0.34-1.34-0.34-2.01v-0.37c0-0.7,0.11-1.38,0.34-2.06c0.23-0.67,0.57-1.28,1.03-1.82c0.46-0.54,1.03-0.98,1.72-1.31
			c0.69-0.33,1.49-0.49,2.41-0.49s1.74,0.17,2.48,0.51c0.73,0.34,1.32,0.83,1.77,1.45c0.45,0.62,0.7,1.36,0.75,2.21h-1.89
			c-0.1-0.69-0.41-1.26-0.95-1.72c-0.54-0.46-1.25-0.69-2.16-0.69c-0.78,0-1.43,0.18-1.95,0.53c-0.52,0.36-0.91,0.84-1.17,1.46
			c-0.26,0.62-0.39,1.32-0.39,2.1c0,0.75,0.13,1.44,0.39,2.07c0.26,0.62,0.65,1.12,1.18,1.48s1.19,0.54,1.98,0.54
			c0.62,0,1.15-0.11,1.61-0.33c0.45-0.22,0.81-0.51,1.09-0.88c0.27-0.37,0.44-0.79,0.49-1.25h1.89c-0.04,0.86-0.29,1.61-0.75,2.24
			c-0.46,0.63-1.06,1.12-1.81,1.47C379.07,341.25,378.23,341.43,377.3,341.43z"/>
		<path class="st1" d="M383.9,331.64v-1.56h3.66v1.56H383.9z M386.14,328.31c-0.44,0-0.76-0.12-0.98-0.35
			c-0.21-0.23-0.32-0.53-0.32-0.88c0-0.36,0.1-0.65,0.32-0.88c0.21-0.23,0.54-0.35,0.98-0.35c0.44,0,0.76,0.12,0.98,0.35
			s0.32,0.53,0.32,0.88c0,0.36-0.11,0.65-0.32,0.88S386.58,328.31,386.14,328.31z M385.59,341.06v-10.98h1.97v10.98H385.59z"/>
		<path class="st1" d="M396.44,341.43c-0.96,0-1.8-0.16-2.53-0.49c-0.73-0.33-1.34-0.76-1.84-1.31c-0.5-0.54-0.88-1.15-1.13-1.82
			c-0.25-0.67-0.38-1.36-0.38-2.06v-0.37c0-0.7,0.13-1.39,0.39-2.07c0.26-0.68,0.65-1.29,1.15-1.83c0.51-0.54,1.12-0.97,1.85-1.3
			c0.73-0.32,1.56-0.48,2.49-0.48c0.93,0,1.76,0.16,2.49,0.48c0.73,0.32,1.34,0.75,1.85,1.3c0.51,0.54,0.89,1.15,1.15,1.83
			c0.26,0.68,0.39,1.37,0.39,2.07v0.37c0,0.7-0.13,1.38-0.38,2.06c-0.25,0.67-0.63,1.28-1.13,1.82c-0.5,0.54-1.11,0.98-1.84,1.31
			C398.25,341.26,397.4,341.43,396.44,341.43z M396.44,339.66c0.82,0,1.52-0.18,2.11-0.54s1.03-0.85,1.34-1.47
			c0.31-0.62,0.46-1.31,0.46-2.08c0-0.78-0.16-1.48-0.47-2.1s-0.76-1.1-1.35-1.46c-0.58-0.36-1.28-0.53-2.09-0.53
			c-0.8,0-1.49,0.18-2.08,0.53c-0.59,0.36-1.04,0.84-1.36,1.46s-0.47,1.32-0.47,2.1c0,0.77,0.15,1.46,0.46,2.08
			c0.31,0.62,0.75,1.11,1.34,1.47S395.62,339.66,396.44,339.66z M395.44,328.47l1.81-4.07h2.08l-2.28,4.07H395.44z"/>
		<path class="st1" d="M405.29,341.06v-10.98h1.56v4.71h-0.25c0-1.08,0.15-2,0.44-2.75c0.3-0.75,0.74-1.32,1.35-1.71
			c0.6-0.39,1.36-0.59,2.28-0.59h0.08c1.39,0,2.41,0.43,3.07,1.3c0.67,0.86,1,2.11,1,3.74v6.27h-1.97v-6.68
			c0-0.85-0.24-1.53-0.72-2.05c-0.48-0.51-1.14-0.77-1.97-0.77c-0.86,0-1.56,0.27-2.1,0.8c-0.54,0.53-0.8,1.25-0.8,2.14v6.56H405.29
			z"/>
		<path class="st1" d="M425.54,340.81l-3.93-10.74h2.02l3.76,10.74H425.54z M422.4,345.34v-1.77h1.58c0.47,0,0.86-0.06,1.18-0.17
			c0.32-0.12,0.59-0.31,0.8-0.59s0.39-0.64,0.52-1.09l3.46-11.64h1.93l-3.66,12.15c-0.22,0.73-0.53,1.32-0.92,1.78
			c-0.4,0.46-0.88,0.8-1.45,1.01c-0.57,0.21-1.23,0.32-1.99,0.32H422.4z M425.75,340.81v-1.65h2.39v1.65H425.75z"/>
		<path class="st1" d="M443.74,341.43c-0.96,0-1.79-0.16-2.49-0.49c-0.7-0.33-1.27-0.76-1.71-1.31c-0.44-0.54-0.76-1.15-0.98-1.82
			c-0.21-0.67-0.32-1.36-0.32-2.06v-0.37c0-0.71,0.11-1.4,0.32-2.08c0.21-0.67,0.54-1.28,0.98-1.82c0.44-0.54,1-0.97,1.68-1.3
			c0.68-0.32,1.48-0.48,2.4-0.48c1.19,0,2.17,0.26,2.95,0.77c0.77,0.51,1.35,1.18,1.73,1.98c0.38,0.81,0.57,1.67,0.57,2.59v0.88
			h-9.75v-1.48h8.31l-0.45,0.8c0-0.78-0.12-1.46-0.37-2.02c-0.25-0.57-0.62-1.01-1.11-1.33c-0.49-0.32-1.12-0.47-1.87-0.47
			c-0.78,0-1.43,0.18-1.94,0.54c-0.51,0.36-0.9,0.84-1.15,1.46c-0.25,0.62-0.38,1.33-0.38,2.14c0,0.78,0.13,1.48,0.38,2.11
			c0.25,0.62,0.65,1.12,1.18,1.48c0.54,0.36,1.21,0.55,2.04,0.55c0.86,0,1.57-0.19,2.11-0.58c0.54-0.38,0.87-0.83,0.98-1.34h1.85
			c-0.15,0.75-0.45,1.41-0.9,1.95c-0.45,0.55-1.02,0.97-1.71,1.25C445.38,341.28,444.61,341.43,443.74,341.43z"/>
		<path class="st1" d="M450.43,331.56v-1.48h6.35v1.48H450.43z M451.95,341.06V329.4c0-1.22,0.32-2.12,0.97-2.69
			c0.64-0.58,1.59-0.86,2.84-0.86h1.23v1.64h-1.56c-0.51,0-0.9,0.14-1.17,0.42c-0.27,0.28-0.41,0.67-0.41,1.16v11.99H451.95z
			 M457.89,331.64v-1.56h3.58v1.56H457.89z M460.05,328.31c-0.44,0-0.76-0.12-0.98-0.35s-0.32-0.53-0.32-0.88
			c0-0.36,0.11-0.65,0.32-0.88s0.54-0.35,0.98-0.35c0.44,0,0.76,0.12,0.98,0.35s0.32,0.53,0.32,0.88c0,0.36-0.11,0.65-0.32,0.88
			S460.49,328.31,460.05,328.31z M459.5,341.06v-10.98h1.98v10.98H459.5z"/>
		<path class="st1" d="M470,341.43c-0.95,0-1.76-0.16-2.46-0.49c-0.69-0.33-1.26-0.77-1.72-1.33c-0.45-0.56-0.79-1.17-1.02-1.84
			c-0.23-0.67-0.34-1.34-0.34-2.01v-0.37c0-0.7,0.11-1.38,0.34-2.06c0.23-0.67,0.57-1.28,1.03-1.82c0.46-0.54,1.03-0.98,1.72-1.31
			c0.69-0.33,1.49-0.49,2.41-0.49s1.74,0.17,2.48,0.51c0.73,0.34,1.32,0.83,1.77,1.45c0.45,0.62,0.7,1.36,0.75,2.21h-1.89
			c-0.1-0.69-0.41-1.26-0.95-1.72c-0.54-0.46-1.25-0.69-2.16-0.69c-0.78,0-1.43,0.18-1.95,0.53c-0.52,0.36-0.91,0.84-1.17,1.46
			c-0.26,0.62-0.39,1.32-0.39,2.1c0,0.75,0.13,1.44,0.39,2.07c0.26,0.62,0.65,1.12,1.18,1.48s1.19,0.54,1.98,0.54
			c0.62,0,1.15-0.11,1.61-0.33c0.45-0.22,0.81-0.51,1.09-0.88c0.27-0.37,0.44-0.79,0.49-1.25h1.89c-0.04,0.86-0.29,1.61-0.75,2.24
			c-0.46,0.63-1.06,1.12-1.81,1.47C471.78,341.25,470.94,341.43,470,341.43z"/>
		<path class="st1" d="M476.6,331.64v-1.56h3.66v1.56H476.6z M478.85,328.31c-0.44,0-0.76-0.12-0.98-0.35
			c-0.21-0.23-0.32-0.53-0.32-0.88c0-0.36,0.1-0.65,0.32-0.88c0.21-0.23,0.54-0.35,0.98-0.35s0.76,0.12,0.98,0.35
			s0.32,0.53,0.32,0.88c0,0.36-0.11,0.65-0.32,0.88S479.28,328.31,478.85,328.31z M478.29,341.06v-10.98h1.97v10.98H478.29z"/>
		<path class="st1" d="M488.76,341.43c-0.96,0-1.79-0.16-2.49-0.49c-0.7-0.33-1.27-0.76-1.71-1.31c-0.44-0.54-0.76-1.15-0.98-1.82
			c-0.21-0.67-0.32-1.36-0.32-2.06v-0.37c0-0.71,0.11-1.4,0.32-2.08c0.21-0.67,0.54-1.28,0.98-1.82c0.44-0.54,1-0.97,1.68-1.3
			c0.68-0.32,1.48-0.48,2.4-0.48c1.19,0,2.17,0.26,2.95,0.77c0.77,0.51,1.35,1.18,1.73,1.98c0.38,0.81,0.57,1.67,0.57,2.59v0.88
			h-9.75v-1.48h8.31l-0.45,0.8c0-0.78-0.12-1.46-0.37-2.02c-0.25-0.57-0.62-1.01-1.11-1.33c-0.49-0.32-1.12-0.47-1.87-0.47
			c-0.78,0-1.43,0.18-1.94,0.54c-0.51,0.36-0.9,0.84-1.15,1.46c-0.25,0.62-0.38,1.33-0.38,2.14c0,0.78,0.13,1.48,0.38,2.11
			c0.25,0.62,0.65,1.12,1.18,1.48c0.54,0.36,1.21,0.55,2.04,0.55c0.86,0,1.57-0.19,2.11-0.58c0.54-0.38,0.87-0.83,0.98-1.34h1.85
			c-0.15,0.75-0.45,1.41-0.9,1.95c-0.45,0.55-1.02,0.97-1.71,1.25C490.4,341.28,489.62,341.43,488.76,341.43z"/>
		<path class="st1" d="M496.68,341.06v-10.98h1.56v4.71h-0.25c0-1.08,0.15-2,0.44-2.75c0.3-0.75,0.74-1.32,1.35-1.71
			c0.6-0.39,1.36-0.59,2.28-0.59h0.08c1.39,0,2.41,0.43,3.07,1.3c0.67,0.86,1,2.11,1,3.74v6.27h-1.97v-6.68
			c0-0.85-0.24-1.53-0.72-2.05c-0.48-0.51-1.14-0.77-1.97-0.77c-0.86,0-1.56,0.27-2.1,0.8c-0.54,0.53-0.8,1.25-0.8,2.14v6.56H496.68
			z"/>
		<path class="st1" d="M514.55,341.43c-0.95,0-1.77-0.16-2.46-0.49c-0.69-0.33-1.26-0.77-1.72-1.33c-0.45-0.56-0.79-1.17-1.02-1.84
			c-0.23-0.67-0.34-1.34-0.34-2.01v-0.37c0-0.7,0.11-1.38,0.34-2.06c0.23-0.67,0.57-1.28,1.03-1.82c0.46-0.54,1.03-0.98,1.72-1.31
			c0.69-0.33,1.49-0.49,2.41-0.49c0.92,0,1.74,0.17,2.48,0.51c0.73,0.34,1.32,0.83,1.77,1.45c0.45,0.62,0.7,1.36,0.75,2.21h-1.89
			c-0.1-0.69-0.41-1.26-0.95-1.72c-0.54-0.46-1.25-0.69-2.16-0.69c-0.78,0-1.43,0.18-1.95,0.53c-0.52,0.36-0.91,0.84-1.17,1.46
			c-0.26,0.62-0.39,1.32-0.39,2.1c0,0.75,0.13,1.44,0.39,2.07c0.26,0.62,0.65,1.12,1.18,1.48c0.53,0.36,1.19,0.54,1.98,0.54
			c0.62,0,1.15-0.11,1.61-0.33c0.45-0.22,0.81-0.51,1.09-0.88c0.27-0.37,0.44-0.79,0.49-1.25h1.89c-0.04,0.86-0.29,1.61-0.75,2.24
			c-0.46,0.63-1.06,1.12-1.81,1.47C516.32,341.25,515.48,341.43,514.55,341.43z"/>
		<path class="st1" d="M521.15,331.64v-1.56h3.66v1.56H521.15z M523.39,328.31c-0.44,0-0.76-0.12-0.98-0.35
			c-0.21-0.23-0.32-0.53-0.32-0.88c0-0.36,0.1-0.65,0.32-0.88c0.21-0.23,0.54-0.35,0.98-0.35s0.76,0.12,0.98,0.35
			c0.21,0.23,0.32,0.53,0.32,0.88c0,0.36-0.11,0.65-0.32,0.88C524.15,328.19,523.83,328.31,523.39,328.31z M522.84,341.06v-10.98
			h1.97v10.98H522.84z"/>
		<path class="st1" d="M531.68,341.35c-0.82,0-1.53-0.14-2.13-0.42c-0.6-0.28-1.06-0.69-1.38-1.22c-0.32-0.54-0.48-1.18-0.48-1.93
			c0-0.78,0.18-1.43,0.53-1.95c0.35-0.52,0.86-0.92,1.53-1.18c0.67-0.27,1.48-0.4,2.43-0.4h2.98v1.48h-3.07
			c-0.8,0-1.4,0.19-1.83,0.58c-0.43,0.38-0.64,0.88-0.64,1.48c0,0.6,0.21,1.09,0.64,1.46c0.43,0.37,1.03,0.56,1.83,0.56
			c0.47,0,0.91-0.09,1.34-0.26c0.43-0.17,0.78-0.46,1.06-0.86c0.28-0.4,0.43-0.96,0.46-1.68l0.53,0.78
			c-0.07,0.78-0.26,1.44-0.57,1.96c-0.31,0.53-0.73,0.93-1.27,1.2C533.1,341.21,532.45,341.35,531.68,341.35z M535.28,341.06v-3.29
			h-0.33v-3.8c0-0.75-0.2-1.32-0.59-1.71c-0.39-0.38-0.96-0.58-1.72-0.58c-0.43,0-0.86,0.01-1.32,0.02
			c-0.45,0.01-0.88,0.03-1.29,0.04c-0.41,0.01-0.77,0.04-1.07,0.06v-1.73c0.3-0.03,0.62-0.05,0.96-0.07
			c0.34-0.02,0.68-0.03,1.04-0.04c0.36-0.01,0.7-0.01,1.03-0.01c1.12,0,2.04,0.13,2.76,0.4c0.71,0.27,1.24,0.7,1.58,1.31
			c0.34,0.6,0.51,1.42,0.51,2.45v6.95H535.28z"/>
		<path class="st1" d="M549.82,341.43c-0.96,0-1.79-0.16-2.49-0.49c-0.7-0.33-1.27-0.76-1.71-1.31c-0.44-0.54-0.76-1.15-0.98-1.82
			c-0.21-0.67-0.32-1.36-0.32-2.06v-0.37c0-0.71,0.11-1.4,0.32-2.08c0.21-0.67,0.54-1.28,0.98-1.82c0.44-0.54,1-0.97,1.68-1.3
			c0.68-0.32,1.48-0.48,2.4-0.48c1.19,0,2.17,0.26,2.95,0.77c0.77,0.51,1.35,1.18,1.73,1.98c0.38,0.81,0.57,1.67,0.57,2.59v0.88
			h-9.75v-1.48h8.31l-0.45,0.8c0-0.78-0.12-1.46-0.37-2.02c-0.25-0.57-0.62-1.01-1.11-1.33c-0.49-0.32-1.12-0.47-1.87-0.47
			c-0.78,0-1.43,0.18-1.94,0.54c-0.51,0.36-0.9,0.84-1.15,1.46c-0.25,0.62-0.38,1.33-0.38,2.14c0,0.78,0.13,1.48,0.38,2.11
			c0.25,0.62,0.65,1.12,1.18,1.48c0.54,0.36,1.21,0.55,2.04,0.55c0.86,0,1.57-0.19,2.11-0.58c0.54-0.38,0.87-0.83,0.98-1.34h1.85
			c-0.15,0.75-0.45,1.41-0.9,1.95c-0.45,0.55-1.02,0.97-1.71,1.25C551.45,341.28,550.68,341.43,549.82,341.43z"/>
		<path class="st1" d="M557.73,341.06v-10.98h1.56v4.71h-0.25c0-1.08,0.15-2,0.44-2.75c0.3-0.75,0.74-1.32,1.35-1.71
			c0.6-0.39,1.36-0.59,2.28-0.59h0.08c1.39,0,2.41,0.43,3.07,1.3c0.67,0.86,1,2.11,1,3.74v6.27h-1.97v-6.68
			c0-0.85-0.24-1.53-0.72-2.05c-0.48-0.51-1.14-0.77-1.97-0.77c-0.86,0-1.56,0.27-2.1,0.8c-0.54,0.53-0.8,1.25-0.8,2.14v6.56H557.73
			z"/>
		<path class="st1" d="M580.29,341.43c-0.95,0-1.76-0.16-2.46-0.49c-0.69-0.33-1.26-0.77-1.72-1.33c-0.45-0.56-0.79-1.17-1.02-1.84
			c-0.23-0.67-0.34-1.34-0.34-2.01v-0.37c0-0.7,0.11-1.38,0.34-2.06c0.23-0.67,0.57-1.28,1.03-1.82c0.46-0.54,1.03-0.98,1.72-1.31
			c0.69-0.33,1.49-0.49,2.41-0.49c0.92,0,1.74,0.17,2.48,0.51c0.73,0.34,1.32,0.83,1.77,1.45c0.45,0.62,0.7,1.36,0.75,2.21h-1.89
			c-0.1-0.69-0.41-1.26-0.95-1.72c-0.54-0.46-1.25-0.69-2.16-0.69c-0.78,0-1.43,0.18-1.95,0.53c-0.52,0.36-0.91,0.84-1.17,1.46
			c-0.26,0.62-0.39,1.32-0.39,2.1c0,0.75,0.13,1.44,0.39,2.07c0.26,0.62,0.65,1.12,1.18,1.48s1.19,0.54,1.98,0.54
			c0.62,0,1.15-0.11,1.61-0.33c0.45-0.22,0.81-0.51,1.09-0.88c0.27-0.37,0.44-0.79,0.49-1.25h1.89c-0.04,0.86-0.29,1.61-0.75,2.24
			c-0.46,0.63-1.06,1.12-1.81,1.47C582.06,341.25,581.23,341.43,580.29,341.43z"/>
		<path class="st1" d="M591.09,341.35c-0.82,0-1.53-0.14-2.13-0.42c-0.6-0.28-1.06-0.69-1.38-1.22c-0.32-0.54-0.48-1.18-0.48-1.93
			c0-0.78,0.18-1.43,0.53-1.95c0.35-0.52,0.86-0.92,1.53-1.18c0.67-0.27,1.48-0.4,2.43-0.4h2.98v1.48h-3.07
			c-0.8,0-1.4,0.19-1.83,0.58c-0.43,0.38-0.64,0.88-0.64,1.48c0,0.6,0.21,1.09,0.64,1.46c0.43,0.37,1.03,0.56,1.83,0.56
			c0.47,0,0.91-0.09,1.34-0.26c0.43-0.17,0.78-0.46,1.06-0.86c0.28-0.4,0.43-0.96,0.46-1.68l0.53,0.78
			c-0.07,0.78-0.26,1.44-0.57,1.96c-0.31,0.53-0.73,0.93-1.27,1.2C592.51,341.21,591.86,341.35,591.09,341.35z M594.69,341.06v-3.29
			h-0.33v-3.8c0-0.75-0.2-1.32-0.59-1.71c-0.39-0.38-0.96-0.58-1.72-0.58c-0.43,0-0.86,0.01-1.32,0.02
			c-0.45,0.01-0.88,0.03-1.29,0.04c-0.41,0.01-0.77,0.04-1.07,0.06v-1.73c0.3-0.03,0.62-0.05,0.96-0.07
			c0.34-0.02,0.68-0.03,1.04-0.04c0.36-0.01,0.7-0.01,1.03-0.01c1.12,0,2.04,0.13,2.76,0.4c0.71,0.27,1.24,0.7,1.58,1.31
			c0.34,0.6,0.51,1.42,0.51,2.45v6.95H594.69z"/>
		<path class="st1" d="M604.46,341.43c-0.78,0-1.5-0.14-2.16-0.43c-0.66-0.29-1.23-0.69-1.72-1.21c-0.49-0.52-0.86-1.12-1.13-1.81
			c-0.27-0.69-0.4-1.43-0.4-2.22v-0.37c0-0.78,0.13-1.51,0.39-2.2c0.26-0.69,0.63-1.29,1.1-1.81c0.47-0.52,1.03-0.93,1.69-1.22
			c0.65-0.3,1.37-0.44,2.17-0.44c0.84,0,1.6,0.17,2.28,0.52c0.69,0.35,1.25,0.89,1.69,1.63c0.44,0.74,0.69,1.7,0.74,2.88l-0.82-1.32
			v-7.38h1.97v15.01h-1.56v-4.87h0.58c-0.05,1.25-0.32,2.26-0.78,3.03c-0.46,0.78-1.05,1.34-1.76,1.69
			C606.02,341.25,605.27,341.43,604.46,341.43z M604.72,339.7c0.67,0,1.28-0.15,1.83-0.45s0.99-0.74,1.32-1.31
			c0.33-0.57,0.49-1.24,0.49-2.01v-0.95c0-0.75-0.17-1.39-0.5-1.92c-0.34-0.53-0.78-0.93-1.34-1.21c-0.55-0.28-1.16-0.42-1.82-0.42
			c-0.73,0-1.37,0.17-1.92,0.51c-0.55,0.34-0.99,0.82-1.29,1.44c-0.31,0.62-0.46,1.34-0.46,2.18c0,0.84,0.16,1.57,0.47,2.19
			c0.32,0.62,0.75,1.1,1.32,1.44C603.37,339.53,604.01,339.7,604.72,339.7z"/>
		<path class="st1" d="M617.08,341.35c-0.82,0-1.53-0.14-2.13-0.42c-0.6-0.28-1.06-0.69-1.38-1.22c-0.32-0.54-0.48-1.18-0.48-1.93
			c0-0.78,0.18-1.43,0.53-1.95c0.35-0.52,0.86-0.92,1.53-1.18c0.67-0.27,1.48-0.4,2.43-0.4h2.98v1.48h-3.07
			c-0.8,0-1.4,0.19-1.83,0.58c-0.43,0.38-0.64,0.88-0.64,1.48c0,0.6,0.21,1.09,0.64,1.46c0.43,0.37,1.03,0.56,1.83,0.56
			c0.47,0,0.91-0.09,1.34-0.26c0.43-0.17,0.78-0.46,1.06-0.86c0.28-0.4,0.43-0.96,0.46-1.68l0.53,0.78
			c-0.07,0.78-0.26,1.44-0.57,1.96c-0.31,0.53-0.73,0.93-1.27,1.2C618.51,341.21,617.85,341.35,617.08,341.35z M620.68,341.06v-3.29
			h-0.33v-3.8c0-0.75-0.2-1.32-0.59-1.71c-0.39-0.38-0.96-0.58-1.72-0.58c-0.43,0-0.86,0.01-1.32,0.02
			c-0.45,0.01-0.88,0.03-1.29,0.04c-0.41,0.01-0.77,0.04-1.07,0.06v-1.73c0.3-0.03,0.62-0.05,0.96-0.07
			c0.34-0.02,0.68-0.03,1.04-0.04c0.36-0.01,0.7-0.01,1.03-0.01c1.12,0,2.04,0.13,2.76,0.4c0.71,0.27,1.24,0.7,1.58,1.31
			c0.34,0.6,0.51,1.42,0.51,2.45v6.95H620.68z"/>
		<path class="st1" d="M634.15,341.39c-1.44,0-2.55-0.31-3.34-0.93c-0.79-0.62-1.2-1.46-1.22-2.53h1.85
			c0.03,0.43,0.24,0.83,0.65,1.2c0.4,0.38,1.09,0.57,2.07,0.57c0.88,0,1.55-0.18,2.02-0.52c0.47-0.35,0.7-0.78,0.7-1.29
			c0-0.45-0.17-0.8-0.51-1.06c-0.34-0.25-0.9-0.42-1.67-0.5l-1.19-0.12c-1.04-0.11-1.89-0.42-2.55-0.94
			c-0.66-0.51-0.99-1.24-0.99-2.17c0-0.7,0.18-1.3,0.53-1.8c0.36-0.5,0.85-0.88,1.48-1.15c0.63-0.27,1.36-0.4,2.18-0.4
			c1.23,0,2.24,0.27,3,0.82c0.77,0.55,1.17,1.36,1.19,2.45h-1.85c-0.02-0.44-0.22-0.81-0.61-1.12c-0.39-0.31-0.97-0.46-1.74-0.46
			c-0.77,0-1.35,0.16-1.75,0.47c-0.4,0.32-0.6,0.71-0.6,1.19c0,0.41,0.14,0.74,0.42,0.99s0.74,0.4,1.39,0.47l1.19,0.12
			c1.18,0.12,2.13,0.45,2.84,0.98c0.71,0.53,1.07,1.27,1.07,2.23c0,0.69-0.2,1.29-0.59,1.82c-0.39,0.53-0.93,0.94-1.62,1.23
			C635.83,341.24,635.04,341.39,634.15,341.39z"/>
		<path class="st1" d="M646.64,341.43c-0.96,0-1.8-0.16-2.53-0.49c-0.73-0.33-1.34-0.76-1.84-1.31c-0.5-0.54-0.88-1.15-1.13-1.82
			c-0.25-0.67-0.38-1.36-0.38-2.06v-0.37c0-0.7,0.13-1.39,0.39-2.07c0.26-0.68,0.65-1.29,1.15-1.83c0.51-0.54,1.12-0.97,1.85-1.3
			c0.73-0.32,1.56-0.48,2.49-0.48c0.93,0,1.76,0.16,2.49,0.48c0.73,0.32,1.34,0.75,1.85,1.3c0.51,0.54,0.89,1.15,1.15,1.83
			c0.26,0.68,0.39,1.37,0.39,2.07v0.37c0,0.7-0.13,1.38-0.38,2.06c-0.25,0.67-0.63,1.28-1.13,1.82c-0.5,0.54-1.11,0.98-1.84,1.31
			C648.44,341.26,647.59,341.43,646.64,341.43z M646.64,339.66c0.82,0,1.52-0.18,2.11-0.54s1.03-0.85,1.34-1.47
			c0.31-0.62,0.46-1.31,0.46-2.08c0-0.78-0.16-1.48-0.47-2.1c-0.32-0.62-0.76-1.1-1.35-1.46c-0.58-0.36-1.28-0.53-2.09-0.53
			c-0.8,0-1.49,0.18-2.08,0.53c-0.59,0.36-1.04,0.84-1.36,1.46c-0.32,0.62-0.47,1.32-0.47,2.1c0,0.77,0.15,1.46,0.46,2.08
			c0.31,0.62,0.75,1.11,1.34,1.47C645.11,339.48,645.81,339.66,646.64,339.66z"/>
		<path class="st1" d="M654.08,327.61v-1.56h3.5v1.56H654.08z M655.6,341.06v-15.01h1.97v15.01H655.6z"/>
		<path class="st1" d="M665.16,341.39c-1.3,0-2.3-0.43-3-1.28c-0.7-0.85-1.05-2.08-1.05-3.68v-6.38h1.97v6.77
			c0,0.86,0.23,1.54,0.7,2.02c0.46,0.49,1.1,0.73,1.89,0.73c0.82,0,1.49-0.26,2.01-0.79c0.52-0.53,0.78-1.25,0.78-2.17v-6.56h1.97
			v11h-1.56v-4.71h0.25c0,1.08-0.14,2-0.43,2.75c-0.29,0.75-0.72,1.32-1.28,1.71c-0.57,0.39-1.29,0.59-2.17,0.59H665.16z"/>
		<path class="st1" d="M678.98,341.43c-0.95,0-1.76-0.16-2.46-0.49c-0.69-0.33-1.26-0.77-1.72-1.33c-0.45-0.56-0.79-1.17-1.02-1.84
			c-0.23-0.67-0.34-1.34-0.34-2.01v-0.37c0-0.7,0.11-1.38,0.34-2.06c0.23-0.67,0.57-1.28,1.03-1.82c0.46-0.54,1.03-0.98,1.72-1.31
			c0.69-0.33,1.49-0.49,2.41-0.49c0.92,0,1.74,0.17,2.48,0.51c0.73,0.34,1.32,0.83,1.77,1.45c0.45,0.62,0.7,1.36,0.75,2.21h-1.89
			c-0.1-0.69-0.41-1.26-0.95-1.72c-0.54-0.46-1.25-0.69-2.16-0.69c-0.78,0-1.43,0.18-1.95,0.53c-0.52,0.36-0.91,0.84-1.17,1.46
			c-0.26,0.62-0.39,1.32-0.39,2.1c0,0.75,0.13,1.44,0.39,2.07c0.26,0.62,0.65,1.12,1.18,1.48s1.19,0.54,1.98,0.54
			c0.62,0,1.15-0.11,1.61-0.33c0.45-0.22,0.81-0.51,1.09-0.88c0.27-0.37,0.44-0.79,0.49-1.25h1.89c-0.04,0.86-0.29,1.61-0.75,2.24
			c-0.46,0.63-1.06,1.12-1.81,1.47C680.75,341.25,679.92,341.43,678.98,341.43z"/>
		<path class="st1" d="M685.58,331.64v-1.56h3.66v1.56H685.58z M687.83,328.31c-0.44,0-0.76-0.12-0.98-0.35
			c-0.21-0.23-0.32-0.53-0.32-0.88c0-0.36,0.1-0.65,0.32-0.88c0.21-0.23,0.54-0.35,0.98-0.35c0.44,0,0.76,0.12,0.98,0.35
			c0.21,0.23,0.32,0.53,0.32,0.88c0,0.36-0.11,0.65-0.32,0.88C688.59,328.19,688.26,328.31,687.83,328.31z M687.27,341.06v-10.98
			h1.97v10.98H687.27z"/>
		<path class="st1" d="M698.13,341.43c-0.96,0-1.8-0.16-2.53-0.49c-0.73-0.33-1.34-0.76-1.84-1.31c-0.5-0.54-0.88-1.15-1.13-1.82
			c-0.25-0.67-0.38-1.36-0.38-2.06v-0.37c0-0.7,0.13-1.39,0.39-2.07c0.26-0.68,0.65-1.29,1.15-1.83c0.51-0.54,1.12-0.97,1.85-1.3
			c0.73-0.32,1.56-0.48,2.49-0.48c0.93,0,1.76,0.16,2.49,0.48c0.73,0.32,1.34,0.75,1.85,1.3c0.51,0.54,0.89,1.15,1.15,1.83
			c0.26,0.68,0.39,1.37,0.39,2.07v0.37c0,0.7-0.13,1.38-0.38,2.06c-0.25,0.67-0.63,1.28-1.13,1.82c-0.5,0.54-1.11,0.98-1.84,1.31
			C699.93,341.26,699.09,341.43,698.13,341.43z M698.13,339.66c0.82,0,1.52-0.18,2.11-0.54s1.03-0.85,1.34-1.47
			c0.31-0.62,0.46-1.31,0.46-2.08c0-0.78-0.16-1.48-0.47-2.1c-0.32-0.62-0.76-1.1-1.35-1.46c-0.58-0.36-1.28-0.53-2.09-0.53
			c-0.8,0-1.49,0.18-2.08,0.53c-0.59,0.36-1.04,0.84-1.36,1.46c-0.32,0.62-0.47,1.32-0.47,2.1c0,0.77,0.15,1.46,0.46,2.08
			c0.31,0.62,0.75,1.11,1.34,1.47S697.31,339.66,698.13,339.66z M697.12,328.47l1.81-4.07h2.08l-2.28,4.07H697.12z"/>
		<path class="st1" d="M706.97,341.06v-10.98h1.56v4.71h-0.25c0-1.08,0.15-2,0.44-2.75c0.3-0.75,0.74-1.32,1.35-1.71
			c0.6-0.39,1.36-0.59,2.28-0.59h0.08c1.39,0,2.41,0.43,3.07,1.3c0.67,0.86,1,2.11,1,3.74v6.27h-1.97v-6.68
			c0-0.85-0.24-1.53-0.72-2.05s-1.14-0.77-1.97-0.77c-0.86,0-1.56,0.27-2.1,0.8c-0.54,0.53-0.8,1.25-0.8,2.14v6.56H706.97z"/>
	</g>
</g>
</svg>
